<svg width="320" height="1779" viewBox="0 0 320 1779" fill="none" xmlns="http://www.w3.org/2000/svg">
<g clip-path="url(#clip0_33_171)">
<path fill-rule="evenodd" clip-rule="evenodd" d="M117.521 85.0388C86.3414 115.006 78.407 158.435 70.2744 197.362C62.925 232.541 68.1137 264.59 73.1692 297.334C78.7272 333.334 70.1965 382.714 101.28 398.188C133.081 414.019 182.655 408.844 221.793 406.519C259.529 404.277 289.771 411.118 322.972 385.017C358.368 357.191 328.549 303.913 350.321 265.441C369.851 230.932 431.998 219.976 436.93 183.651C441.702 148.502 393.141 142.255 369.84 121.67C351.72 105.662 336.528 88.1977 315.208 76.1194C288.864 61.1944 264.39 41.4573 230.92 42.9674C192.6 44.6964 148.634 55.1373 117.521 85.0388Z" stroke="url(#paint0_linear_33_171)"/>
<path fill-rule="evenodd" clip-rule="evenodd" d="M183.823 66.7901C146.332 88.3443 128.149 128.574 110.86 164.387C95.2367 196.751 92.5359 229.105 89.5378 262.102C86.2417 298.378 66.0436 344.24 92.4727 366.759C119.512 389.798 168.87 396.742 207.411 403.933C244.573 410.867 272.269 424.805 310.789 407.491C351.854 389.032 335.778 330.131 366.192 298.053C393.475 269.277 456.429 273.648 469.983 239.587C483.099 206.629 437.481 188.845 419.839 163.244C406.118 143.336 395.591 122.72 377.818 105.853C355.855 85.0103 336.869 59.9493 304.024 53.3356C266.42 45.7636 221.233 45.2828 183.823 66.7901Z" stroke="url(#paint1_linear_33_171)"/>
<g opacity="0.5" filter="url(#filter0_f_33_171)">
<path fill-rule="evenodd" clip-rule="evenodd" d="M34.7789 743.631C-63.8609 661.55 -125.5 568.325 -182.977 484.06C-234.919 407.91 -256.3 346.744 -278.682 284.08C-303.288 215.187 -372.302 109.527 -320.246 99.7354C-266.987 89.7178 -153.498 134.417 -65.6971 166.149C18.9594 196.745 77.9881 203.813 177.095 279.48C282.751 360.148 272.035 447.193 358.819 539.958C436.666 623.172 583.498 688.234 631.333 765.03C677.62 839.341 577.997 818.419 548.145 843.912C524.929 863.737 509.592 888.529 475.382 898.205C433.11 910.161 399.832 933.132 325.235 906.962C239.828 876.999 133.204 825.534 34.7789 743.631Z" fill="url(#paint2_linear_33_171)"/>
</g>
<g opacity="0.6" filter="url(#filter1_f_33_171)">
<path fill-rule="evenodd" clip-rule="evenodd" d="M331.25 720.098C312.559 720.165 297.156 704.341 283.03 690.593C270.264 678.17 262.362 661.772 254.212 645.124C245.251 626.821 227.891 608.619 233.041 588.488C238.309 567.893 255.399 548.997 268.368 533.299C280.872 518.164 288.324 502.213 306.501 499.572C325.878 496.756 332.366 533.072 350.635 540.789C367.023 547.711 389.776 525.998 402.124 539.963C414.073 553.475 400.697 576.992 399.509 596.058C398.584 610.884 399.012 625.104 395.916 639.559C392.09 657.422 390.281 676.613 379.333 690.249C366.798 705.861 349.901 720.031 331.25 720.098Z" fill="url(#paint3_linear_33_171)"/>
</g>
<g opacity="0.6" filter="url(#filter2_f_33_171)">
<path fill-rule="evenodd" clip-rule="evenodd" d="M97.7439 269.427C78.8848 277.261 55.2126 263.551 33.8942 251.948C14.6288 241.463 -1.75529 223.915 -18.5191 206.152C-36.9494 186.623 -63.8172 170.703 -68.9203 143.003C-74.1412 114.664 -66.5434 83.5806 -61.4731 58.2688C-56.5843 33.8635 -57.2197 10.5164 -40.1997 -0.373161C-22.055 -11.9823 3.10015 31.4481 25.5182 33.6741C45.6277 35.6709 57.5075 -1.33661 77.1398 11.2779C96.1367 23.4842 94.6594 58.8963 103.221 83.6014C109.879 102.814 117.593 120.695 121.865 140.337C127.145 164.607 135.144 189.73 131.06 211.586C126.385 236.609 116.562 261.61 97.7439 269.427Z" fill="url(#paint4_linear_33_171)"/>
</g>
<g opacity="0.8" filter="url(#filter3_f_33_171)">
<path fill-rule="evenodd" clip-rule="evenodd" d="M-30.0512 700.645C-51.3344 702.509 -64.2376 690.827 -76.2948 680.75C-87.1909 671.643 -91.3941 658.758 -95.8069 645.689C-100.658 631.32 -115.093 617.848 -103.359 600.593C-91.3543 582.94 -66.3969 565.558 -47.0618 551.237C-28.4191 537.428 -15.2851 523.43 6.16304 519.473C29.0286 515.255 25.8094 544.857 44.34 549.514C60.9625 553.69 93.184 533.416 103.155 543.845C112.804 553.937 90.7232 574.807 83.8061 590.792C78.4269 603.223 74.7627 615.018 67.0209 627.35C57.4544 642.588 49.7952 658.739 33.3602 671.148C14.5436 685.356 -8.81442 698.786 -30.0512 700.645Z" fill="url(#paint5_linear_33_171)"/>
</g>
</g>
<defs>
<filter id="filter0_f_33_171" x="-839.205" y="-401.697" width="1982.61" height="1820.68" filterUnits="userSpaceOnUse" color-interpolation-filters="sRGB">
<feFlood flood-opacity="0" result="BackgroundImageFix"/>
<feBlend mode="normal" in="SourceGraphic" in2="BackgroundImageFix" result="shape"/>
<feGaussianBlur stdDeviation="250" result="effect1_foregroundBlur_33_171"/>
</filter>
<filter id="filter1_f_33_171" x="97.9008" y="365.214" width="443.357" height="489.087" filterUnits="userSpaceOnUse" color-interpolation-filters="sRGB">
<feFlood flood-opacity="0" result="BackgroundImageFix"/>
<feBlend mode="normal" in="SourceGraphic" in2="BackgroundImageFix" result="shape"/>
<feGaussianBlur stdDeviation="67.1014" result="effect1_foregroundBlur_33_171"/>
</filter>
<filter id="filter2_f_33_171" x="-270.676" y="-202.342" width="602.857" height="674.074" filterUnits="userSpaceOnUse" color-interpolation-filters="sRGB">
<feFlood flood-opacity="0" result="BackgroundImageFix"/>
<feBlend mode="normal" in="SourceGraphic" in2="BackgroundImageFix" result="shape"/>
<feGaussianBlur stdDeviation="100" result="effect1_foregroundBlur_33_171"/>
</filter>
<filter id="filter3_f_33_171" x="-187.846" y="439.063" width="373.402" height="341.78" filterUnits="userSpaceOnUse" color-interpolation-filters="sRGB">
<feFlood flood-opacity="0" result="BackgroundImageFix"/>
<feBlend mode="normal" in="SourceGraphic" in2="BackgroundImageFix" result="shape"/>
<feGaussianBlur stdDeviation="40" result="effect1_foregroundBlur_33_171"/>
</filter>
<linearGradient id="paint0_linear_33_171" x1="40.533" y1="499.877" x2="403.618" y2="268.174" gradientUnits="userSpaceOnUse">
<stop stop-color="#270F69"/>
<stop offset="1" stop-color="#270F69" stop-opacity="0"/>
</linearGradient>
<linearGradient id="paint1_linear_33_171" x1="8.97588" y1="450.777" x2="417.254" y2="313.569" gradientUnits="userSpaceOnUse">
<stop stop-color="#270F69"/>
<stop offset="1" stop-color="#270F69" stop-opacity="0"/>
</linearGradient>
<linearGradient id="paint2_linear_33_171" x1="-631.586" y1="-71.8861" x2="-338.423" y2="-312.605" gradientUnits="userSpaceOnUse">
<stop stop-color="#EE86FF"/>
<stop offset="1" stop-color="#270F69"/>
</linearGradient>
<linearGradient id="paint3_linear_33_171" x1="181.808" y1="621.79" x2="269.373" y2="486.929" gradientUnits="userSpaceOnUse">
<stop stop-color="#EE86FF"/>
<stop offset="1" stop-color="#270F69"/>
</linearGradient>
<linearGradient id="paint4_linear_33_171" x1="-103.654" y1="206.535" x2="-44.0392" y2="11.2226" gradientUnits="userSpaceOnUse">
<stop stop-color="#EE86FF"/>
<stop offset="1" stop-color="#270F69"/>
</linearGradient>
<linearGradient id="paint5_linear_33_171" x1="-171.363" y1="633.269" x2="-100.036" y2="480.876" gradientUnits="userSpaceOnUse">
<stop stop-color="#EE86FF"/>
<stop offset="1" stop-color="#270F69"/>
</linearGradient>
<clipPath id="clip0_33_171">
<rect width="320" height="1779" fill="white"/>
</clipPath>
</defs>
</svg>
