<svg width="255" height="277" viewBox="0 0 255 277" fill="none" xmlns="http://www.w3.org/2000/svg">
<rect x="4.88477" y="0.926025" width="245.281" height="91.6377" rx="45.8188" fill="#3C1C79"/>
<path d="M80.1066 25.1903H91.0866C92.0466 25.1903 92.3766 25.5203 92.3766 26.4803V29.1803C92.3766 30.1403 92.0466 30.4403 91.0866 30.4403H83.6466L83.4366 32.5403H85.4466C90.6966 32.5403 93.3066 35.4503 93.3066 39.6803C93.3066 41.8103 92.5866 43.5503 91.1466 44.9003C89.6766 46.2803 87.6966 46.9703 85.1766 46.9703C80.3766 46.9703 77.7366 45.4103 76.4466 42.0203C76.1166 41.0903 76.3566 40.7303 77.2266 40.4003L80.4366 39.2003C81.2466 38.8703 81.6366 39.0203 81.9966 39.9503C82.4466 41.0603 83.4366 41.6303 84.9066 41.6303C86.3766 41.6303 87.1266 40.8803 87.1266 39.4103C87.1266 38.0603 86.3166 37.3703 84.7266 37.3703H78.4866C77.4066 37.3703 77.0766 36.9503 77.1666 35.9003L78.0966 26.9903C78.2466 25.6403 78.6966 25.1903 80.1066 25.1903ZM101.415 42.4703L99.195 49.0403C98.865 49.8803 98.535 50.1803 97.605 50.1803H95.925C95.175 50.1803 94.995 50.0003 95.085 49.3103L95.925 42.4703C96.045 41.3603 96.405 40.9403 97.455 40.9403H100.245C101.385 40.9403 101.775 41.4503 101.415 42.4703ZM103.99 39.1403V32.5703C103.99 27.7703 107.14 24.7703 112.54 24.7703C117.94 24.7703 121.09 27.7703 121.09 32.5703V39.1403C121.09 44.0303 117.94 46.9703 112.54 46.9703C107.14 46.9703 103.99 44.0303 103.99 39.1403ZM115.15 39.3803V32.3303C115.15 30.8603 114.19 30.0203 112.54 30.0203C110.89 30.0203 109.93 30.8603 109.93 32.3303V39.3803C109.93 40.8503 110.89 41.7203 112.54 41.7203C114.19 41.7203 115.15 40.8503 115.15 39.3803ZM124.043 39.1403V32.5703C124.043 27.7703 127.193 24.7703 132.593 24.7703C137.993 24.7703 141.143 27.7703 141.143 32.5703V39.1403C141.143 44.0303 137.993 46.9703 132.593 46.9703C127.193 46.9703 124.043 44.0303 124.043 39.1403ZM135.203 39.3803V32.3303C135.203 30.8603 134.243 30.0203 132.593 30.0203C130.943 30.0203 129.983 30.8603 129.983 32.3303V39.3803C129.983 40.8503 130.943 41.7203 132.593 41.7203C134.243 41.7203 135.203 40.8503 135.203 39.3803ZM144.096 39.1403V32.5703C144.096 27.7703 147.246 24.7703 152.646 24.7703C158.046 24.7703 161.196 27.7703 161.196 32.5703V39.1403C161.196 44.0303 158.046 46.9703 152.646 46.9703C147.246 46.9703 144.096 44.0303 144.096 39.1403ZM155.256 39.3803V32.3303C155.256 30.8603 154.296 30.0203 152.646 30.0203C150.996 30.0203 150.036 30.8603 150.036 32.3303V39.3803C150.036 40.8503 150.996 41.7203 152.646 41.7203C154.296 41.7203 155.256 40.8503 155.256 39.3803ZM173.719 34.2203H177.499C178.459 34.2203 178.759 34.5503 178.759 35.5103V37.8803C178.759 38.8403 178.459 39.1703 177.499 39.1703H173.719V42.9503C173.719 43.9103 173.389 44.2103 172.429 44.2103H170.059C169.099 44.2103 168.769 43.9103 168.769 42.9503V39.1703H165.019C164.059 39.1703 163.759 38.8403 163.759 37.8803V35.5103C163.759 34.5503 164.059 34.2203 165.019 34.2203H168.769V30.4703C168.769 29.5103 169.099 29.2103 170.059 29.2103H172.429C173.389 29.2103 173.719 29.5103 173.719 30.4703V34.2203Z" fill="white"/>
<path opacity="0.7" d="M70.6804 66.9695V56.8895H72.5844V61.5375L76.4204 56.8895H78.7444L74.5304 61.8595L79.0104 66.9695H76.6024L72.5844 62.3775V66.9695H70.6804ZM78.7304 66.9695V65.3875C79.0058 65.4388 79.2181 65.4365 79.3674 65.3805C79.5168 65.3198 79.6288 65.2031 79.7034 65.0305C79.7828 64.8531 79.8504 64.6128 79.9064 64.3095C79.9811 63.9081 80.0464 63.4391 80.1024 62.9025C80.1631 62.3658 80.2144 61.7988 80.2564 61.2015C80.2984 60.5995 80.3358 60.0021 80.3684 59.4095H86.0804V66.9695H84.1764V61.1875H82.0344C82.0158 61.4301 81.9901 61.7195 81.9574 62.0555C81.9294 62.3915 81.8968 62.7415 81.8594 63.1055C81.8268 63.4648 81.7894 63.8101 81.7474 64.1415C81.7054 64.4681 81.6611 64.7481 81.6144 64.9815C81.5024 65.5741 81.3368 66.0408 81.1174 66.3815C80.8981 66.7221 80.5971 66.9391 80.2144 67.0325C79.8318 67.1305 79.3371 67.1095 78.7304 66.9695ZM94.7777 59.4095V66.9695H92.9577V62.3495L89.5417 66.9695H88.0297V59.4095H89.8497V63.8755L93.2797 59.4095H94.7777ZM100.253 67.1795C99.4784 67.1795 98.7947 67.0138 98.202 66.6825C97.614 66.3465 97.152 65.8868 96.816 65.3035C96.4847 64.7155 96.319 64.0435 96.319 63.2875C96.319 62.4615 96.4824 61.7428 96.809 61.1315C97.1357 60.5201 97.586 60.0465 98.16 59.7105C98.734 59.3698 99.3944 59.1995 100.141 59.1995C100.934 59.1995 101.609 59.3861 102.164 59.7595C102.719 60.1328 103.13 60.6578 103.396 61.3345C103.662 62.0111 103.755 62.8068 103.676 63.7215H101.793V63.0215C101.793 62.2515 101.669 61.6985 101.422 61.3625C101.179 61.0218 100.78 60.8515 100.225 60.8515C99.5764 60.8515 99.098 61.0498 98.79 61.4465C98.4867 61.8385 98.335 62.4195 98.335 63.1895C98.335 63.8941 98.4867 64.4401 98.79 64.8275C99.098 65.2101 99.5484 65.4015 100.141 65.4015C100.514 65.4015 100.834 65.3198 101.1 65.1565C101.366 64.9931 101.569 64.7575 101.709 64.4495L103.613 64.9955C103.328 65.6861 102.878 66.2228 102.262 66.6055C101.651 66.9881 100.981 67.1795 100.253 67.1795ZM97.747 63.7215V62.3075H102.759V63.7215H97.747ZM105.243 66.9695V59.4095H107.147V62.2935H110.255V59.4095H112.159V66.9695H110.255V64.0715H107.147V66.9695H105.243ZM115.964 66.9695V61.0895H113.486V59.4095H120.346V61.0895H117.868V66.9695H115.964ZM124.942 67.1795C124.181 67.1795 123.514 67.0091 122.94 66.6685C122.366 66.3278 121.918 65.8588 121.596 65.2615C121.278 64.6595 121.12 63.9688 121.12 63.1895C121.12 62.4008 121.283 61.7078 121.61 61.1105C121.936 60.5085 122.387 60.0395 122.961 59.7035C123.535 59.3675 124.195 59.1995 124.942 59.1995C125.702 59.1995 126.37 59.3698 126.944 59.7105C127.522 60.0511 127.973 60.5225 128.295 61.1245C128.617 61.7218 128.778 62.4101 128.778 63.1895C128.778 63.9735 128.614 64.6665 128.288 65.2685C127.966 65.8658 127.515 66.3348 126.937 66.6755C126.363 67.0115 125.698 67.1795 124.942 67.1795ZM124.942 65.4015C125.553 65.4015 126.008 65.1961 126.307 64.7855C126.61 64.3701 126.762 63.8381 126.762 63.1895C126.762 62.5175 126.608 61.9808 126.3 61.5795C125.996 61.1781 125.544 60.9775 124.942 60.9775C124.526 60.9775 124.186 61.0708 123.92 61.2575C123.654 61.4441 123.455 61.7031 123.325 62.0345C123.199 62.3658 123.136 62.7508 123.136 63.1895C123.136 63.8661 123.287 64.4051 123.591 64.8065C123.899 65.2031 124.349 65.4015 124.942 65.4015ZM130.303 66.9695V59.4095H133.845C134.125 59.4095 134.37 59.4258 134.58 59.4585C134.79 59.4865 134.965 59.5215 135.105 59.5635C135.45 59.6661 135.765 59.8668 136.05 60.1655C136.335 60.4641 136.477 60.8981 136.477 61.4675C136.477 61.8035 136.423 62.0765 136.316 62.2865C136.209 62.4918 136.066 62.6621 135.889 62.7975C135.805 62.8581 135.721 62.9095 135.637 62.9515C135.553 62.9935 135.469 63.0261 135.385 63.0495C135.581 63.0775 135.758 63.1288 135.917 63.2035C136.169 63.3155 136.388 63.4928 136.575 63.7355C136.762 63.9735 136.855 64.3281 136.855 64.7995C136.855 65.3035 136.731 65.7328 136.484 66.0875C136.241 66.4421 135.875 66.6895 135.385 66.8295C135.217 66.8761 135.019 66.9111 134.79 66.9345C134.566 66.9578 134.33 66.9695 134.083 66.9695H130.303ZM132.235 65.5275H133.943C134.041 65.5275 134.141 65.5181 134.244 65.4995C134.351 65.4761 134.447 65.4481 134.531 65.4155C134.666 65.3595 134.762 65.2638 134.818 65.1285C134.879 64.9931 134.909 64.8555 134.909 64.7155C134.909 64.5195 134.865 64.3655 134.776 64.2535C134.692 64.1415 134.596 64.0621 134.489 64.0155C134.4 63.9735 134.302 63.9501 134.195 63.9455C134.092 63.9361 134.008 63.9315 133.943 63.9315H132.235V65.5275ZM132.235 62.4615H133.397C133.546 62.4615 133.686 62.4545 133.817 62.4405C133.952 62.4218 134.064 62.3915 134.153 62.3495C134.274 62.2935 134.365 62.2048 134.426 62.0835C134.487 61.9575 134.517 61.8175 134.517 61.6635C134.517 61.5001 134.482 61.3531 134.412 61.2225C134.347 61.0871 134.237 60.9961 134.083 60.9495C133.98 60.9121 133.85 60.8911 133.691 60.8865C133.537 60.8818 133.439 60.8795 133.397 60.8795H132.235V62.4615ZM141.049 66.9695V59.4095H144.591C144.871 59.4095 145.116 59.4258 145.326 59.4585C145.536 59.4865 145.711 59.5215 145.851 59.5635C146.197 59.6661 146.512 59.8668 146.796 60.1655C147.081 60.4641 147.223 60.8981 147.223 61.4675C147.223 61.8035 147.17 62.0765 147.062 62.2865C146.955 62.4918 146.813 62.6621 146.635 62.7975C146.551 62.8581 146.467 62.9095 146.383 62.9515C146.299 62.9935 146.215 63.0261 146.131 63.0495C146.327 63.0775 146.505 63.1288 146.663 63.2035C146.915 63.3155 147.135 63.4928 147.321 63.7355C147.508 63.9735 147.601 64.3281 147.601 64.7995C147.601 65.3035 147.478 65.7328 147.23 66.0875C146.988 66.4421 146.621 66.6895 146.131 66.8295C145.963 66.8761 145.765 66.9111 145.536 66.9345C145.312 66.9578 145.077 66.9695 144.829 66.9695H141.049ZM142.981 65.5275H144.689C144.787 65.5275 144.888 65.5181 144.99 65.4995C145.098 65.4761 145.193 65.4481 145.277 65.4155C145.413 65.3595 145.508 65.2638 145.564 65.1285C145.625 64.9931 145.655 64.8555 145.655 64.7155C145.655 64.5195 145.611 64.3655 145.522 64.2535C145.438 64.1415 145.343 64.0621 145.235 64.0155C145.147 63.9735 145.049 63.9501 144.941 63.9455C144.839 63.9361 144.755 63.9315 144.689 63.9315H142.981V65.5275ZM142.981 62.4615H144.143C144.293 62.4615 144.433 62.4545 144.563 62.4405C144.699 62.4218 144.811 62.3915 144.899 62.3495C145.021 62.2935 145.112 62.2048 145.172 62.0835C145.233 61.9575 145.263 61.8175 145.263 61.6635C145.263 61.5001 145.228 61.3531 145.158 61.2225C145.093 61.0871 144.983 60.9961 144.829 60.9495C144.727 60.9121 144.596 60.8911 144.437 60.8865C144.283 60.8818 144.185 60.8795 144.143 60.8795H142.981V62.4615ZM151.249 68.6495V65.4995C151.651 65.4995 151.935 65.3595 152.103 65.0795C152.276 64.7995 152.411 64.3001 152.509 63.5815C152.565 63.1661 152.612 62.7298 152.649 62.2725C152.691 61.8151 152.726 61.3461 152.754 60.8655C152.782 60.3848 152.808 59.8995 152.831 59.4095H158.669V65.4995H159.439V68.6495H157.647V66.9695H153.041V68.6495H151.249ZM153.685 65.4995H156.765V60.8795H154.483C154.469 61.1361 154.453 61.3928 154.434 61.6495C154.42 61.9061 154.402 62.1605 154.378 62.4125C154.36 62.6645 154.341 62.9095 154.322 63.1475C154.304 63.3808 154.283 63.6048 154.259 63.8195C154.217 64.2301 154.159 64.5638 154.084 64.8205C154.01 65.0771 153.877 65.3035 153.685 65.4995ZM164.347 67.1795C163.572 67.1795 162.888 67.0138 162.296 66.6825C161.708 66.3465 161.246 65.8868 160.91 65.3035C160.578 64.7155 160.413 64.0435 160.413 63.2875C160.413 62.4615 160.576 61.7428 160.903 61.1315C161.229 60.5201 161.68 60.0465 162.254 59.7105C162.828 59.3698 163.488 59.1995 164.235 59.1995C165.028 59.1995 165.702 59.3861 166.258 59.7595C166.813 60.1328 167.224 60.6578 167.49 61.3345C167.756 62.0111 167.849 62.8068 167.77 63.7215H165.887V63.0215C165.887 62.2515 165.763 61.6985 165.516 61.3625C165.273 61.0218 164.874 60.8515 164.319 60.8515C163.67 60.8515 163.192 61.0498 162.884 61.4465C162.58 61.8385 162.429 62.4195 162.429 63.1895C162.429 63.8941 162.58 64.4401 162.884 64.8275C163.192 65.2101 163.642 65.4015 164.235 65.4015C164.608 65.4015 164.928 65.3198 165.194 65.1565C165.46 64.9931 165.663 64.7575 165.803 64.4495L167.707 64.9955C167.422 65.6861 166.972 66.2228 166.356 66.6055C165.744 66.9881 165.075 67.1795 164.347 67.1795ZM161.841 63.7215V62.3075H166.853V63.7215H161.841ZM169.336 66.9695V59.4095H171.24V62.2935H174.348V59.4095H176.252V66.9695H174.348V64.0715H171.24V66.9695H169.336ZM178.196 66.9695V59.4095H180.1V61.8175H181.318C181.528 61.8175 181.773 61.8221 182.053 61.8315C182.333 61.8408 182.564 61.8641 182.746 61.9015C183.189 61.9995 183.562 62.1558 183.866 62.3705C184.169 62.5851 184.398 62.8628 184.552 63.2035C184.71 63.5395 184.79 63.9408 184.79 64.4075C184.79 65.0795 184.615 65.6208 184.265 66.0315C183.919 66.4375 183.418 66.7175 182.76 66.8715C182.578 66.9135 182.344 66.9415 182.06 66.9555C181.775 66.9648 181.528 66.9695 181.318 66.9695H178.196ZM180.1 65.4995H181.528C181.612 65.4995 181.705 65.4948 181.808 65.4855C181.91 65.4761 182.013 65.4575 182.116 65.4295C182.312 65.3735 182.484 65.2498 182.634 65.0585C182.783 64.8671 182.858 64.6501 182.858 64.4075C182.858 64.1415 182.781 63.9151 182.627 63.7285C182.473 63.5371 182.293 63.4135 182.088 63.3575C181.99 63.3295 181.892 63.3108 181.794 63.3015C181.696 63.2921 181.607 63.2875 181.528 63.2875H180.1V65.4995Z" fill="white"/>
<rect x="0.316406" y="99.6521" width="245.281" height="91.6377" rx="45.8188" transform="rotate(-6.81089 0.316406 99.6521)" fill="#270F69"/>
<path d="M77.5902 116.129C79.0027 117.078 79.8097 118.522 80.0339 120.399C80.258 122.276 79.6578 123.828 78.2298 125.025C80.3204 125.833 81.5026 127.384 81.7766 129.678C82.2747 133.848 79.8748 136.522 74.5129 137.162C69.9255 137.71 66.7999 136.331 65.1027 132.999C64.7088 132.23 64.9128 131.662 65.7149 131.294L68.5096 129.903C69.3939 129.465 69.7429 129.604 70.2142 130.515C70.8438 131.739 71.9349 132.273 73.4541 132.092C75.0031 131.907 75.7065 131.218 75.5677 130.057C75.4289 128.895 74.7024 128.377 73.3918 128.534L71.5747 128.751C70.6215 128.865 70.2844 128.573 70.1741 127.649L69.8788 125.177C69.765 124.224 70.0237 123.86 70.977 123.747L72.2877 123.59C73.6281 123.43 74.2492 122.812 74.1176 121.71C73.9859 120.608 73.2368 120.153 71.8963 120.313C70.3175 120.502 69.7227 121.087 69.3275 122.584C69.1101 123.547 68.7179 123.805 67.8149 123.58L64.7712 122.886C63.8753 122.722 63.5503 122.277 63.7748 121.374C64.6692 117.732 67.3821 115.656 71.9397 115.111C74.293 114.83 76.1777 115.179 77.5902 116.129ZM83.8606 128.16L83.0814 121.636C82.5122 116.87 85.2842 113.518 90.6461 112.877C96.0079 112.237 99.4915 114.842 100.061 119.608L100.84 126.132C101.42 130.987 98.6407 134.28 93.2788 134.921C87.9169 135.561 84.4405 133.015 83.8606 128.16ZM94.9703 127.075L94.1342 120.074C93.9599 118.615 92.907 117.895 91.2687 118.09C89.6303 118.286 88.7767 119.234 88.951 120.693L89.7871 127.694C89.9614 129.153 91.0178 129.903 92.6562 129.708C94.2946 129.512 95.1446 128.534 94.9703 127.075ZM103.772 125.782L102.993 119.258C102.424 114.492 105.196 111.14 110.558 110.499C115.92 109.859 119.403 112.464 119.972 117.23L120.752 123.754C121.331 128.609 118.552 131.902 113.19 132.542C107.829 133.183 104.352 130.637 103.772 125.782ZM114.882 124.696L114.046 117.696C113.871 116.237 112.819 115.516 111.18 115.712C109.542 115.908 108.688 116.856 108.863 118.315L109.699 125.316C109.873 126.775 110.929 127.525 112.568 127.33C114.206 127.134 115.056 126.156 114.882 124.696ZM129.652 126.044L128.227 132.831C127.999 133.705 127.707 134.042 126.783 134.152L125.115 134.351C124.37 134.44 124.17 134.283 124.178 133.587L124.201 126.695C124.188 125.579 124.496 125.119 125.538 124.995L128.309 124.664C129.441 124.529 129.888 124.989 129.652 126.044ZM131.814 122.432L131.035 115.909C130.466 111.143 133.237 107.79 138.599 107.15C143.961 106.51 147.445 109.115 148.014 113.881L148.793 120.405C149.373 125.26 146.594 128.553 141.232 129.193C135.87 129.834 132.394 127.288 131.814 122.432ZM142.924 121.347L142.088 114.347C141.913 112.887 140.86 112.167 139.222 112.363C137.584 112.559 136.73 113.506 136.904 114.966L137.74 121.966C137.915 123.426 138.971 124.176 140.61 123.98C142.248 123.785 143.098 122.807 142.924 121.347ZM151.725 120.054L150.946 113.531C150.377 108.765 153.149 105.412 158.511 104.772C163.873 104.131 167.356 106.737 167.926 111.503L168.705 118.026C169.285 122.882 166.506 126.175 161.144 126.815C155.782 127.456 152.305 124.91 151.725 120.054ZM162.835 118.969L161.999 111.969C161.825 110.509 160.772 109.789 159.134 109.985C157.495 110.18 156.642 111.128 156.816 112.588L157.652 119.588C157.826 121.048 158.883 121.798 160.521 121.602C162.159 121.406 163.01 120.429 162.835 118.969ZM171.637 117.676L170.858 111.153C170.289 106.386 173.061 103.034 178.423 102.394C183.784 101.753 187.268 104.358 187.837 109.125L188.616 115.648C189.196 120.504 186.417 123.797 181.055 124.437C175.693 125.077 172.217 122.532 171.637 117.676ZM182.747 116.591L181.911 109.591C181.736 108.131 180.684 107.411 179.045 107.607C177.407 107.802 176.553 108.75 176.728 110.21L177.564 117.21C177.738 118.67 178.794 119.42 180.433 119.224C182.071 119.028 182.921 118.051 182.747 116.591Z" fill="white"/>
<path opacity="0.7" d="M66.3205 158.493C65.6115 158.578 64.9758 158.548 64.4134 158.404C63.8556 158.259 63.3743 158.046 62.9695 157.765C62.5641 157.48 62.2382 157.171 61.9917 156.839L63.4575 155.536C63.5964 155.754 63.7814 155.965 64.0124 156.167C64.2434 156.37 64.5368 156.525 64.8928 156.633C65.2488 156.741 65.6816 156.765 66.1913 156.704C66.6733 156.646 67.0519 156.531 67.3272 156.357C67.6071 156.182 67.799 155.978 67.9027 155.745C68.0111 155.511 68.0509 155.274 68.0221 155.033C67.9839 154.713 67.8596 154.479 67.6491 154.33C67.4433 154.181 67.1882 154.091 66.8839 154.062C66.5791 154.028 66.2616 154.026 65.9315 154.056C65.6107 154.085 65.3781 154.106 65.2339 154.118C65.0944 154.13 64.9991 154.139 64.9481 154.145C64.9018 154.151 64.8578 154.156 64.8161 154.161L64.6036 152.382C64.6638 152.374 64.7518 152.364 64.8677 152.35C64.9882 152.336 65.1086 152.321 65.2291 152.307C65.3537 152.287 65.4551 152.271 65.5333 152.256C66.0171 152.175 66.4098 152.02 66.7114 151.791C67.0177 151.562 67.1468 151.246 67.0987 150.843C67.0544 150.472 66.8733 150.195 66.5554 150.012C66.2421 149.829 65.8421 149.766 65.3556 149.824C64.8969 149.879 64.4987 150.028 64.161 150.27C63.8275 150.507 63.5914 150.754 63.4528 151.01L61.994 149.775C62.2983 149.372 62.727 149.006 63.2798 148.676C63.8327 148.347 64.4728 148.139 65.2003 148.052C65.6405 148 66.0784 148.006 66.5139 148.072C66.9489 148.133 67.3496 148.261 67.7161 148.457C68.082 148.648 68.3865 148.915 68.6294 149.257C68.877 149.599 69.0313 150.025 69.0922 150.534C69.1436 150.965 69.1159 151.382 69.0089 151.785C68.9014 152.183 68.7194 152.529 68.4631 152.823C68.9023 152.959 69.2565 153.189 69.5256 153.514C69.7947 153.839 69.9608 154.266 70.0239 154.794C70.103 155.456 69.986 156.051 69.6729 156.577C69.3638 157.098 68.9143 157.525 68.3244 157.859C67.7391 158.192 67.0711 158.403 66.3205 158.493ZM74.0216 157.573C73.4841 157.638 73.0155 157.59 72.6158 157.431C72.2202 157.267 71.9046 157.025 71.6691 156.705C71.4376 156.38 71.2969 156.009 71.2471 155.592C71.2056 155.245 71.221 154.921 71.2932 154.621C71.3655 154.321 71.5068 154.048 71.7171 153.802C71.9315 153.551 72.2314 153.327 72.6168 153.131C72.8827 152.995 73.2032 152.866 73.5784 152.741C73.9536 152.616 74.3803 152.49 74.8585 152.362C75.3362 152.23 75.8617 152.085 76.4351 151.927L75.7987 152.384C75.7456 151.939 75.6 151.625 75.362 151.442C75.1239 151.259 74.7546 151.197 74.2542 151.257C73.9762 151.29 73.6946 151.392 73.4095 151.563C73.1243 151.733 72.942 151.997 72.8625 152.354L71.0879 152.016C71.2037 151.372 71.5001 150.825 71.9773 150.373C72.4544 149.921 73.1447 149.641 74.0483 149.533C74.711 149.454 75.3116 149.486 75.8503 149.628C76.389 149.771 76.8203 150.077 77.1442 150.545C77.3257 150.806 77.4469 151.073 77.5079 151.348C77.5689 151.623 77.6199 151.931 77.6609 152.274L78.2088 156.862L76.5545 157.059L76.3702 155.516L76.6447 155.808C76.339 156.357 75.9865 156.77 75.5874 157.048C75.1922 157.321 74.6703 157.496 74.0216 157.573ZM74.2471 156.038C74.5946 155.996 74.8794 155.901 75.1013 155.752C75.3273 155.599 75.5004 155.435 75.6206 155.26C75.7454 155.086 75.827 154.942 75.8652 154.829C75.9382 154.614 75.9655 154.371 75.9473 154.1C75.9332 153.825 75.9154 153.597 75.8938 153.416L76.4664 153.489C75.9168 153.648 75.4721 153.781 75.1323 153.888C74.792 153.989 74.5183 154.078 74.3112 154.155C74.1042 154.231 73.9232 154.309 73.7682 154.389C73.5917 154.485 73.4508 154.584 73.3454 154.686C73.2442 154.783 73.1719 154.885 73.1284 154.994C73.0896 155.102 73.0777 155.219 73.0926 155.344C73.1131 155.515 73.1725 155.659 73.2709 155.774C73.3733 155.884 73.5072 155.962 73.6725 156.008C73.8378 156.054 74.0293 156.064 74.2471 156.038ZM84.4366 156.118L84.151 153.727L82.9416 153.871C82.7841 153.89 82.5684 153.914 82.2944 153.942C82.0245 153.964 81.769 153.969 81.5277 153.956C80.9172 153.92 80.395 153.72 79.9612 153.353C79.5319 152.986 79.275 152.448 79.1903 151.739C79.1078 151.049 79.2245 150.471 79.5402 150.005C79.8559 149.54 80.3126 149.213 80.9105 149.024C81.1546 148.943 81.4084 148.885 81.672 148.848C81.9397 148.807 82.1592 148.776 82.3307 148.756L85.4306 148.385L86.3272 155.892L84.4366 156.118ZM79.599 156.696L80.9629 153.713L82.9091 153.48L81.573 156.46L79.599 156.696ZM82.5588 152.437L83.9767 152.267L83.7144 150.071L82.2965 150.24C82.2131 150.25 82.1209 150.266 82.0201 150.287C81.9239 150.308 81.8242 150.339 81.7209 150.38C81.5956 150.432 81.4834 150.516 81.3844 150.631C81.2848 150.742 81.2088 150.873 81.1565 151.025C81.1036 151.172 81.0871 151.329 81.107 151.496C81.1386 151.76 81.2442 151.976 81.4239 152.142C81.603 152.304 81.7932 152.401 81.9944 152.434C82.0951 152.45 82.1946 152.457 82.293 152.454C82.3961 152.451 82.4847 152.446 82.5588 152.437ZM88.256 155.662L87.3594 148.155L90.8764 147.735C91.1544 147.702 91.3996 147.689 91.612 147.697C91.8239 147.699 92.0018 147.713 92.1458 147.739C92.5009 147.8 92.8374 147.961 93.1555 148.224C93.4736 148.487 93.6664 148.901 93.7339 149.466C93.7738 149.8 93.7528 150.077 93.6712 150.299C93.5889 150.515 93.4678 150.701 93.3078 150.857C93.2316 150.927 93.1543 150.988 93.0758 151.04C92.9974 151.091 92.9179 151.134 92.8372 151.167C93.0352 151.171 93.2173 151.201 93.3837 151.257C93.6472 151.338 93.8861 151.488 94.1002 151.707C94.3138 151.921 94.4485 152.262 94.5044 152.73C94.5642 153.231 94.4923 153.671 94.2888 154.053C94.0899 154.434 93.7554 154.723 93.2855 154.92C93.1242 154.986 92.9314 155.045 92.7072 155.095C92.4875 155.145 92.2549 155.184 92.0093 155.213L88.256 155.662ZM90.0033 154.001L91.6993 153.798C91.7966 153.787 91.8951 153.765 91.9948 153.735C92.0986 153.699 92.1903 153.66 92.2698 153.617C92.3976 153.546 92.4812 153.439 92.5208 153.298C92.565 153.157 92.5788 153.016 92.5622 152.877C92.5389 152.683 92.4766 152.535 92.3753 152.434C92.2786 152.333 92.1742 152.266 92.0621 152.232C91.9691 152.201 91.869 152.189 91.7619 152.198C91.6588 152.2 91.5749 152.206 91.51 152.214L89.8141 152.416L90.0033 154.001ZM89.6397 150.956L90.7935 150.819C90.9418 150.801 91.08 150.777 91.2081 150.748C91.3402 150.713 91.4478 150.67 91.5309 150.618C91.6447 150.548 91.7246 150.449 91.7704 150.321C91.8157 150.189 91.8292 150.046 91.811 149.893C91.7916 149.731 91.7394 149.589 91.6544 149.468C91.5735 149.341 91.4538 149.264 91.2954 149.236C91.189 149.211 91.0568 149.206 90.8987 149.22C90.7452 149.234 90.6476 149.243 90.6059 149.248L89.4521 149.386L89.6397 150.956ZM99.5601 154.523C98.8048 154.613 98.122 154.523 97.5116 154.253C96.9013 153.983 96.4008 153.57 96.0102 153.015C95.6237 152.455 95.3843 151.788 95.2919 151.015C95.1983 150.231 95.2783 149.524 95.5318 148.892C95.7848 148.256 96.1764 147.737 96.7065 147.335C97.2366 146.933 97.8723 146.688 98.6137 146.599C99.369 146.509 100.052 146.599 100.662 146.869C101.277 147.139 101.78 147.554 102.171 148.113C102.562 148.668 102.803 149.333 102.896 150.106C102.989 150.885 102.909 151.592 102.656 152.229C102.407 152.86 102.015 153.379 101.481 153.786C100.951 154.188 100.311 154.433 99.5601 154.523ZM99.3492 152.758C99.9562 152.685 100.384 152.427 100.632 151.984C100.883 151.536 100.971 150.99 100.894 150.345C100.814 149.678 100.598 149.164 100.244 148.802C99.8956 148.439 99.4223 148.294 98.8246 148.365C98.4122 148.414 98.085 148.547 97.843 148.764C97.601 148.981 97.4348 149.262 97.3443 149.606C97.2585 149.95 97.2416 150.34 97.2936 150.775C97.3739 151.447 97.5884 151.965 97.9372 152.327C98.2901 152.684 98.7607 152.828 99.3492 152.758ZM104.859 153.679L103.976 146.171L105.894 145.941L106.326 149.556L108.438 145.638L110.774 145.359L108.511 149.436L111.851 152.844L109.39 153.138L106.359 149.834L106.791 153.448L104.859 153.679ZM118.729 152.234C117.973 152.324 117.29 152.234 116.68 151.964C116.07 151.694 115.569 151.281 115.179 150.726C114.792 150.166 114.553 149.499 114.46 148.725C114.367 147.942 114.447 147.235 114.7 146.603C114.953 145.966 115.345 145.447 115.875 145.045C116.405 144.644 117.041 144.399 117.782 144.31C118.537 144.22 119.22 144.31 119.831 144.58C120.446 144.85 120.949 145.264 121.34 145.824C121.73 146.379 121.972 147.043 122.064 147.817C122.157 148.595 122.077 149.303 121.824 149.939C121.575 150.571 121.184 151.09 120.65 151.497C120.12 151.898 119.479 152.144 118.729 152.234ZM118.518 150.468C119.125 150.396 119.552 150.138 119.8 149.695C120.052 149.246 120.139 148.7 120.062 148.056C119.983 147.389 119.766 146.874 119.413 146.512C119.064 146.15 118.591 146.004 117.993 146.076C117.581 146.125 117.253 146.258 117.011 146.475C116.769 146.692 116.603 146.972 116.513 147.317C116.427 147.661 116.41 148.051 116.462 148.486C116.542 149.158 116.757 149.675 117.106 150.038C117.459 150.395 117.929 150.539 118.518 150.468ZM127.23 151.232C126.506 151.31 125.875 151.223 125.338 150.972C124.8 150.717 124.354 150.33 124.001 149.813C123.652 149.291 123.399 148.668 123.242 147.944C123.158 147.555 123.096 147.113 123.056 146.62C123.02 146.121 123.015 145.628 123.041 145.141C123.068 144.654 123.137 144.23 123.249 143.869C123.359 143.531 123.514 143.217 123.714 142.925C123.918 142.628 124.141 142.371 124.383 142.154C124.668 141.899 124.982 141.692 125.325 141.534C125.667 141.371 126.031 141.233 126.417 141.122C126.803 141.01 127.204 140.903 127.62 140.802C128.04 140.7 128.463 140.581 128.889 140.446L129.255 142.094C128.999 142.195 128.704 142.282 128.369 142.355C128.035 142.428 127.692 142.504 127.339 142.583C126.986 142.659 126.652 142.753 126.337 142.865C126.021 142.978 125.754 143.123 125.535 143.299C125.239 143.537 125.027 143.844 124.898 144.222C124.773 144.594 124.719 144.962 124.734 145.327C124.972 144.875 125.287 144.546 125.681 144.34C126.079 144.132 126.48 144.004 126.883 143.956C127.545 143.877 128.132 143.969 128.643 144.233C129.158 144.491 129.575 144.873 129.894 145.38C130.212 145.883 130.41 146.458 130.488 147.107C130.576 147.844 130.493 148.509 130.24 149.104C129.991 149.697 129.607 150.182 129.088 150.559C128.569 150.932 127.949 151.156 127.23 151.232ZM127.103 149.457C127.64 149.393 128.026 149.178 128.259 148.811C128.493 148.445 128.576 147.984 128.51 147.428C128.442 146.858 128.247 146.428 127.926 146.137C127.608 145.841 127.188 145.725 126.664 145.787C126.131 145.851 125.746 146.064 125.507 146.426C125.272 146.783 125.189 147.246 125.257 147.816C125.327 148.405 125.523 148.842 125.844 149.128C126.164 149.409 126.584 149.519 127.103 149.457ZM136.139 150.154C135.393 150.243 134.749 150.144 134.207 149.856C133.665 149.569 133.231 149.141 132.905 148.574C132.583 148.006 132.378 147.347 132.288 146.596C132.199 145.845 132.243 145.156 132.422 144.528C132.601 143.901 132.913 143.384 133.358 142.979C133.803 142.573 134.382 142.327 135.096 142.242C135.814 142.156 136.46 142.253 137.034 142.532C137.608 142.812 138.076 143.233 138.439 143.796C138.807 144.353 139.036 145.014 139.128 145.779C139.217 146.53 139.152 147.221 138.931 147.854C138.715 148.486 138.369 149.007 137.891 149.416C137.414 149.826 136.83 150.072 136.139 150.154ZM132.815 153.724L131.52 142.881L133.188 142.682L133.803 147.825L134.039 147.797L134.72 153.496L132.815 153.724ZM135.633 148.509C136.04 148.46 136.362 148.318 136.597 148.083C136.832 147.849 136.992 147.552 137.076 147.194C137.16 146.832 137.176 146.44 137.126 146.018C137.076 145.601 136.966 145.229 136.795 144.901C136.624 144.569 136.389 144.318 136.092 144.147C135.798 143.97 135.44 143.907 135.019 143.957C134.625 144.005 134.316 144.138 134.093 144.357C133.875 144.576 133.731 144.863 133.661 145.219C133.59 145.576 133.582 145.981 133.637 146.435C133.691 146.889 133.794 147.281 133.946 147.61C134.098 147.94 134.311 148.185 134.584 148.345C134.861 148.505 135.211 148.559 135.633 148.509ZM143.215 149.309C142.678 149.373 142.209 149.326 141.81 149.167C141.414 149.003 141.098 148.761 140.863 148.441C140.631 148.116 140.491 147.745 140.441 147.328C140.399 146.981 140.415 146.657 140.487 146.357C140.559 146.057 140.701 145.784 140.911 145.538C141.125 145.287 141.425 145.063 141.811 144.866C142.076 144.731 142.397 144.601 142.772 144.477C143.147 144.352 143.574 144.226 144.052 144.098C144.53 143.966 145.056 143.821 145.629 143.663L144.993 144.12C144.939 143.675 144.794 143.361 144.556 143.178C144.318 142.995 143.948 142.933 143.448 142.993C143.17 143.026 142.888 143.128 142.603 143.298C142.318 143.469 142.136 143.733 142.056 144.09L140.282 143.752C140.397 143.108 140.694 142.561 141.171 142.109C141.648 141.657 142.339 141.377 143.242 141.269C143.905 141.19 144.505 141.222 145.044 141.364C145.583 141.507 146.014 141.812 146.338 142.281C146.519 142.542 146.641 142.809 146.702 143.084C146.763 143.358 146.814 143.667 146.855 144.01L147.403 148.598L145.748 148.795L145.564 147.252L145.839 147.544C145.533 148.092 145.18 148.506 144.781 148.784C144.386 149.057 143.864 149.232 143.215 149.309ZM143.441 147.774C143.788 147.732 144.073 147.637 144.295 147.488C144.521 147.334 144.694 147.17 144.814 146.996C144.939 146.822 145.021 146.678 145.059 146.565C145.132 146.35 145.159 146.107 145.141 145.836C145.127 145.561 145.109 145.333 145.088 145.152L145.66 145.224C145.111 145.384 144.666 145.517 144.326 145.623C143.986 145.725 143.712 145.814 143.505 145.891C143.298 145.967 143.117 146.045 142.962 146.125C142.785 146.221 142.645 146.32 142.539 146.422C142.438 146.519 142.366 146.621 142.322 146.73C142.283 146.838 142.271 146.954 142.286 147.08C142.307 147.251 142.366 147.394 142.465 147.509C142.567 147.619 142.701 147.697 142.866 147.744C143.032 147.79 143.223 147.8 143.441 147.774ZM152.399 148.226C151.675 148.303 151.044 148.217 150.507 147.966C149.969 147.711 149.523 147.324 149.17 146.807C148.821 146.285 148.568 145.662 148.411 144.938C148.327 144.549 148.265 144.107 148.224 143.614C148.188 143.115 148.184 142.622 148.21 142.135C148.236 141.648 148.306 141.224 148.418 140.863C148.528 140.525 148.683 140.211 148.883 139.919C149.087 139.622 149.31 139.365 149.552 139.148C149.837 138.893 150.15 138.686 150.493 138.528C150.836 138.365 151.2 138.227 151.586 138.115C151.972 138.004 152.373 137.897 152.789 137.796C153.209 137.694 153.632 137.575 154.057 137.44L154.423 139.088C154.168 139.189 153.872 139.276 153.538 139.349C153.204 139.422 152.86 139.498 152.508 139.577C152.155 139.652 151.821 139.746 151.505 139.859C151.19 139.972 150.923 140.117 150.704 140.293C150.408 140.531 150.196 140.838 150.067 141.215C149.942 141.588 149.888 141.956 149.903 142.321C150.14 141.869 150.456 141.54 150.85 141.334C151.248 141.126 151.648 140.998 152.052 140.95C152.714 140.871 153.301 140.963 153.812 141.226C154.327 141.485 154.744 141.867 155.063 142.374C155.381 142.877 155.579 143.452 155.657 144.101C155.745 144.838 155.662 145.503 155.409 146.097C155.16 146.691 154.776 147.176 154.257 147.553C153.738 147.926 153.118 148.15 152.399 148.226ZM152.271 146.451C152.809 146.387 153.194 146.172 153.428 145.805C153.662 145.439 153.745 144.978 153.679 144.422C153.611 143.852 153.416 143.422 153.095 143.131C152.777 142.835 152.357 142.719 151.833 142.781C151.3 142.845 150.914 143.058 150.676 143.42C150.441 143.777 150.358 144.24 150.426 144.81C150.496 145.399 150.692 145.836 151.013 146.122C151.333 146.403 151.752 146.513 152.271 146.451ZM161.002 147.185C160.247 147.275 159.564 147.185 158.954 146.915C158.343 146.645 157.843 146.232 157.452 145.677C157.066 145.117 156.827 144.45 156.734 143.676C156.641 142.893 156.721 142.186 156.974 141.554C157.227 140.917 157.619 140.398 158.149 139.996C158.679 139.595 159.315 139.35 160.056 139.261C160.811 139.171 161.494 139.261 162.104 139.531C162.719 139.801 163.222 140.215 163.614 140.775C164.004 141.33 164.246 141.994 164.338 142.768C164.431 143.546 164.351 144.254 164.098 144.89C163.849 145.522 163.458 146.041 162.923 146.448C162.393 146.849 161.753 147.095 161.002 147.185ZM160.791 145.419C161.398 145.347 161.826 145.089 162.074 144.646C162.326 144.197 162.413 143.651 162.336 143.007C162.257 142.34 162.04 141.825 161.687 141.463C161.338 141.101 160.865 140.955 160.267 141.027C159.854 141.076 159.527 141.209 159.285 141.426C159.043 141.643 158.877 141.923 158.787 142.268C158.701 142.612 158.684 143.002 158.736 143.437C158.816 144.109 159.031 144.626 159.379 144.989C159.732 145.346 160.203 145.49 160.791 145.419ZM168.014 146.136L167.317 140.297L164.856 140.591L164.657 138.923L171.469 138.11L171.668 139.778L169.207 140.072L169.905 145.91L168.014 146.136ZM175.647 145.436C175.109 145.5 174.641 145.452 174.241 145.293C173.846 145.129 173.53 144.887 173.294 144.568C173.063 144.243 172.922 143.872 172.872 143.455C172.831 143.107 172.846 142.783 172.919 142.483C172.991 142.183 173.132 141.91 173.342 141.664C173.557 141.413 173.857 141.189 174.242 140.993C174.508 140.858 174.829 140.728 175.204 140.603C175.579 140.478 176.006 140.352 176.484 140.225C176.962 140.092 177.487 139.947 178.06 139.79L177.424 140.246C177.371 139.801 177.225 139.488 176.987 139.304C176.749 139.121 176.38 139.06 175.88 139.12C175.602 139.153 175.32 139.254 175.035 139.425C174.75 139.595 174.567 139.859 174.488 140.216L172.713 139.878C172.829 139.235 173.126 138.687 173.603 138.235C174.08 137.784 174.77 137.504 175.674 137.396C176.336 137.317 176.937 137.348 177.476 137.491C178.014 137.633 178.446 137.939 178.77 138.408C178.951 138.668 179.072 138.936 179.133 139.21C179.194 139.485 179.245 139.794 179.286 140.137L179.834 144.724L178.18 144.922L177.996 143.379L178.27 143.67C177.964 144.219 177.612 144.632 177.213 144.91C176.818 145.183 176.296 145.358 175.647 145.436ZM175.872 143.9C176.22 143.859 176.505 143.763 176.727 143.615C176.953 143.461 177.126 143.297 177.246 143.123C177.371 142.948 177.452 142.804 177.491 142.692C177.564 142.476 177.591 142.233 177.573 141.963C177.559 141.687 177.541 141.459 177.519 141.278L178.092 141.351C177.542 141.511 177.098 141.644 176.758 141.75C176.417 141.852 176.144 141.941 175.937 142.017C175.73 142.094 175.549 142.172 175.394 142.251C175.217 142.348 175.076 142.447 174.971 142.548C174.87 142.645 174.797 142.748 174.754 142.856C174.715 142.964 174.703 143.081 174.718 143.206C174.739 143.378 174.798 143.521 174.896 143.636C174.999 143.746 175.133 143.824 175.298 143.87C175.463 143.916 175.655 143.926 175.872 143.9ZM181.628 144.51L180.731 137.003L182.622 136.777L182.964 139.641L186.05 139.273L185.708 136.409L187.598 136.183L188.495 143.69L186.604 143.916L186.26 141.038L183.174 141.407L183.518 144.284L181.628 144.51ZM193.841 143.263C193.086 143.353 192.403 143.263 191.793 142.993C191.182 142.722 190.682 142.31 190.291 141.755C189.905 141.195 189.665 140.528 189.573 139.754C189.479 138.971 189.559 138.263 189.813 137.632C190.066 136.995 190.457 136.476 190.988 136.074C191.518 135.673 192.153 135.428 192.895 135.339C193.65 135.249 194.333 135.339 194.943 135.609C195.558 135.879 196.061 136.293 196.452 136.853C196.843 137.408 197.084 138.072 197.177 138.846C197.27 139.624 197.19 140.332 196.937 140.968C196.688 141.6 196.297 142.119 195.762 142.526C195.232 142.927 194.592 143.173 193.841 143.263ZM193.63 141.497C194.237 141.425 194.665 141.167 194.913 140.724C195.165 140.275 195.252 139.729 195.175 139.085C195.095 138.418 194.879 137.903 194.525 137.541C194.177 137.179 193.703 137.033 193.106 137.104C192.693 137.154 192.366 137.287 192.124 137.504C191.882 137.721 191.716 138.001 191.625 138.346C191.54 138.69 191.523 139.079 191.575 139.515C191.655 140.187 191.87 140.704 192.218 141.067C192.571 141.424 193.042 141.567 193.63 141.497Z" fill="white"/>
<rect x="8.14062" y="168.643" width="245.281" height="91.6377" rx="45.8188" transform="rotate(3.74666 8.14062 168.643)" fill="#BB64D0"/>
<path d="M102.321 199.157L104.117 199.275C105.075 199.337 105.353 199.686 105.292 200.614L104.065 219.354C104.004 220.282 103.683 220.592 102.725 220.529L99.3422 220.308C98.3842 220.245 98.0765 219.894 98.1373 218.966L98.9547 206.483L96.8745 207.489C95.975 207.911 95.3581 207.69 94.962 206.853L93.7217 204.216C93.3894 203.322 93.5626 202.973 94.4341 202.519L100.491 199.548C101.082 199.256 101.692 199.116 102.321 199.157ZM107.944 213.475L108.373 206.919C108.687 202.129 112.026 199.342 117.414 199.694C122.803 200.047 125.75 203.247 125.436 208.036L125.007 214.592C124.688 219.472 121.352 222.2 115.964 221.847C110.575 221.494 107.624 218.355 107.944 213.475ZM119.064 214.444L119.525 207.409C119.621 205.942 118.718 205.041 117.071 204.933C115.425 204.825 114.412 205.601 114.316 207.068L113.855 214.103C113.759 215.569 114.66 216.5 116.307 216.608C117.953 216.716 118.968 215.911 119.064 214.444ZM127.954 214.785L128.383 208.229C128.697 203.44 132.036 200.652 137.425 201.005C142.813 201.358 145.76 204.557 145.447 209.347L145.017 215.903C144.698 220.782 141.362 223.51 135.974 223.157C130.585 222.804 127.634 219.665 127.954 214.785ZM139.074 215.754L139.535 208.719C139.631 207.252 138.728 206.351 137.082 206.244C135.435 206.136 134.422 206.911 134.326 208.378L133.865 215.413C133.769 216.88 134.671 217.811 136.317 217.919C137.963 218.026 138.978 217.221 139.074 215.754ZM157.835 211.812L161.607 212.059C162.565 212.121 162.843 212.47 162.78 213.428L162.625 215.793C162.563 216.751 162.242 217.061 161.284 216.998L157.512 216.751L157.265 220.523C157.202 221.481 156.853 221.759 155.895 221.696L153.53 221.541C152.572 221.478 152.263 221.157 152.325 220.199L152.572 216.428L148.83 216.183C147.872 216.12 147.595 215.771 147.657 214.813L147.812 212.448C147.875 211.49 148.196 211.18 149.154 211.243L152.896 211.488L153.141 207.746C153.204 206.788 153.552 206.51 154.51 206.573L156.875 206.728C157.833 206.791 158.143 207.112 158.08 208.07L157.835 211.812Z" fill="white"/>
<path opacity="0.7" d="M88.4778 240.089L89.1365 230.031L97.4347 230.574L96.776 240.632L94.8761 240.508L95.4186 232.224L90.9202 231.929L90.3777 240.213L88.4778 240.089ZM100.819 241.108C100.279 241.072 99.8267 240.94 99.463 240.71C99.1041 240.476 98.8382 240.181 98.6652 239.823C98.4972 239.461 98.4269 239.071 98.4543 238.652C98.4772 238.303 98.5516 237.987 98.6776 237.705C98.8036 237.424 98.9926 237.181 99.2444 236.978C99.5012 236.77 99.837 236.605 100.252 236.483C100.538 236.399 100.877 236.33 101.269 236.276C101.66 236.222 102.103 236.176 102.596 236.138C103.09 236.096 103.633 236.049 104.226 235.999L103.517 236.332C103.546 235.885 103.46 235.549 103.26 235.326C103.059 235.102 102.708 234.974 102.205 234.941C101.925 234.923 101.63 234.971 101.318 235.086C101.007 235.202 100.779 235.428 100.636 235.764L98.953 235.107C99.1848 234.495 99.5766 234.011 100.128 233.655C100.68 233.298 101.41 233.149 102.318 233.209C102.984 233.252 103.569 233.394 104.072 233.632C104.576 233.871 104.944 234.251 105.176 234.771C105.307 235.06 105.377 235.345 105.387 235.626C105.396 235.908 105.39 236.221 105.367 236.565L105.066 241.175L103.403 241.066L103.505 239.516L103.721 239.853C103.32 240.336 102.898 240.678 102.454 240.878C102.016 241.074 101.471 241.15 100.819 241.108ZM101.322 239.639C101.671 239.662 101.968 239.621 102.214 239.515C102.464 239.406 102.665 239.276 102.815 239.127C102.969 238.978 103.076 238.852 103.134 238.748C103.245 238.549 103.317 238.316 103.348 238.046C103.385 237.773 103.409 237.545 103.421 237.364L103.971 237.54C103.401 237.596 102.94 237.646 102.586 237.688C102.233 237.726 101.948 237.763 101.73 237.8C101.512 237.837 101.32 237.881 101.153 237.931C100.962 237.993 100.805 238.065 100.683 238.145C100.566 238.222 100.476 238.31 100.413 238.408C100.355 238.508 100.322 238.62 100.314 238.746C100.303 238.918 100.335 239.07 100.411 239.201C100.491 239.328 100.608 239.429 100.763 239.505C100.917 239.58 101.103 239.625 101.322 239.639ZM110.57 241.746C109.82 241.697 109.205 241.481 108.725 241.099C108.245 240.717 107.897 240.217 107.68 239.6C107.468 238.983 107.387 238.297 107.436 237.542C107.486 236.788 107.656 236.119 107.946 235.535C108.237 234.95 108.639 234.5 109.15 234.182C109.662 233.865 110.277 233.73 110.994 233.777C111.716 233.824 112.333 234.038 112.846 234.417C113.359 234.797 113.742 235.297 113.996 235.917C114.255 236.532 114.36 237.224 114.309 237.993C114.26 238.747 114.069 239.415 113.736 239.996C113.408 240.578 112.972 241.027 112.428 241.342C111.883 241.657 111.264 241.792 110.57 241.746ZM106.648 244.646L107.362 233.749L109.038 233.859L108.7 239.028L108.937 239.044L108.562 244.771L106.648 244.646ZM110.373 240.036C110.783 240.063 111.125 239.982 111.399 239.794C111.674 239.606 111.885 239.344 112.033 239.008C112.182 238.667 112.27 238.285 112.298 237.861C112.325 237.442 112.285 237.056 112.177 236.702C112.07 236.345 111.885 236.054 111.624 235.831C111.367 235.604 111.027 235.477 110.604 235.449C110.208 235.423 109.88 235.497 109.621 235.672C109.366 235.847 109.172 236.103 109.038 236.441C108.903 236.778 108.821 237.175 108.791 237.631C108.761 238.088 108.791 238.492 108.88 238.844C108.969 239.196 109.133 239.475 109.372 239.683C109.616 239.89 109.95 240.008 110.373 240.036ZM117.443 241.986L117.828 236.118L115.355 235.957L115.465 234.28L122.31 234.728L122.2 236.405L119.728 236.243L119.343 242.11L117.443 241.986ZM123.13 242.358L123.624 234.814L125.524 234.939L125.335 237.817L128.437 238.02L128.625 235.142L130.525 235.266L130.031 242.81L128.131 242.686L128.32 239.794L125.219 239.591L125.03 242.483L123.13 242.358ZM136.585 234.597L136.695 232.92L138.371 233.03L138.262 234.707L136.585 234.597ZM133.623 234.403L133.733 232.727L135.41 232.836L135.3 234.513L133.623 234.403ZM135.477 243.377C134.704 243.327 134.033 243.117 133.463 242.747C132.898 242.374 132.467 241.885 132.17 241.281C131.878 240.672 131.756 239.991 131.806 239.237C131.86 238.412 132.07 237.706 132.436 237.117C132.801 236.528 133.282 236.085 133.877 235.787C134.472 235.485 135.142 235.358 135.887 235.407C136.678 235.459 137.339 235.689 137.869 236.098C138.399 236.507 138.774 237.058 138.995 237.75C139.216 238.443 139.258 239.243 139.119 240.15L137.24 240.027L137.285 239.329C137.336 238.56 137.248 238.001 137.024 237.649C136.804 237.293 136.417 237.097 135.863 237.061C135.215 237.019 134.725 237.185 134.392 237.561C134.063 237.932 133.874 238.502 133.824 239.27C133.778 239.974 133.893 240.528 134.171 240.935C134.453 241.337 134.89 241.557 135.481 241.596C135.854 241.62 136.178 241.56 136.454 241.414C136.73 241.268 136.948 241.046 137.108 240.748L138.973 241.417C138.643 242.088 138.159 242.594 137.519 242.936C136.884 243.278 136.203 243.425 135.477 243.377ZM133.202 239.763L133.295 238.352L138.296 238.679L138.204 240.09L133.202 239.763ZM144.172 243.947C143.422 243.898 142.807 243.682 142.327 243.3C141.847 242.918 141.499 242.418 141.282 241.8C141.07 241.183 140.989 240.497 141.038 239.743C141.087 238.988 141.257 238.319 141.548 237.735C141.839 237.151 142.24 236.7 142.752 236.383C143.264 236.065 143.878 235.93 144.596 235.977C145.317 236.025 145.935 236.238 146.448 236.618C146.961 236.997 147.344 237.497 147.598 238.117C147.857 238.733 147.962 239.425 147.911 240.193C147.862 240.947 147.671 241.615 147.338 242.197C147.01 242.779 146.574 243.227 146.029 243.542C145.485 243.857 144.866 243.992 144.172 243.947ZM140.25 246.847L140.964 235.95L142.64 236.06L142.302 241.229L142.539 241.244L142.164 246.972L140.25 246.847ZM143.975 242.236C144.385 242.263 144.727 242.182 145.001 241.995C145.275 241.807 145.487 241.545 145.635 241.208C145.784 240.867 145.872 240.485 145.9 240.061C145.927 239.642 145.887 239.256 145.779 238.903C145.671 238.545 145.487 238.255 145.226 238.032C144.969 237.805 144.629 237.677 144.206 237.649C143.81 237.623 143.482 237.698 143.223 237.873C142.968 238.048 142.774 238.304 142.639 238.641C142.505 238.978 142.423 239.375 142.393 239.832C142.363 240.288 142.393 240.692 142.482 241.044C142.571 241.396 142.735 241.676 142.974 241.883C143.218 242.091 143.552 242.208 143.975 242.236ZM152.582 244.497C151.823 244.448 151.168 244.234 150.618 243.857C150.067 243.479 149.651 242.982 149.369 242.365C149.091 241.743 148.978 241.044 149.029 240.266C149.081 239.479 149.289 238.798 149.654 238.224C150.019 237.644 150.499 237.206 151.094 236.908C151.689 236.61 152.359 236.486 153.104 236.534C153.863 236.584 154.518 236.798 155.068 237.175C155.623 237.553 156.042 238.053 156.324 238.674C156.606 239.292 156.722 239.989 156.671 240.767C156.62 241.549 156.411 242.23 156.046 242.809C155.686 243.384 155.206 243.823 154.606 244.125C154.011 244.423 153.337 244.547 152.582 244.497ZM152.698 242.723C153.308 242.763 153.776 242.588 154.101 242.198C154.431 241.803 154.617 241.282 154.659 240.635C154.703 239.964 154.584 239.419 154.303 238.998C154.027 238.578 153.588 238.348 152.988 238.309C152.573 238.282 152.227 238.352 151.949 238.521C151.672 238.69 151.457 238.936 151.305 239.258C151.158 239.58 151.07 239.96 151.041 240.398C150.997 241.073 151.113 241.621 151.389 242.041C151.671 242.457 152.107 242.684 152.698 242.723ZM157.946 244.638L158.44 237.094L161.974 237.326C162.254 237.344 162.497 237.376 162.705 237.423C162.912 237.464 163.085 237.511 163.222 237.562C163.559 237.687 163.861 237.908 164.125 238.224C164.39 238.541 164.503 238.983 164.466 239.551C164.444 239.887 164.373 240.156 164.252 240.358C164.132 240.556 163.978 240.717 163.793 240.84C163.705 240.895 163.618 240.941 163.531 240.977C163.444 241.014 163.359 241.041 163.273 241.059C163.467 241.099 163.641 241.162 163.794 241.247C164.038 241.375 164.245 241.567 164.416 241.821C164.587 242.071 164.656 242.431 164.626 242.901C164.593 243.404 164.441 243.824 164.171 244.162C163.906 244.5 163.524 244.723 163.026 244.831C162.855 244.866 162.655 244.888 162.426 244.896C162.201 244.905 161.965 244.901 161.718 244.885L157.946 244.638ZM159.968 243.326L161.672 243.437C161.77 243.444 161.871 243.441 161.975 243.429C162.083 243.413 162.18 243.391 162.266 243.364C162.405 243.317 162.507 243.228 162.572 243.096C162.641 242.965 162.68 242.83 162.689 242.69C162.702 242.494 162.668 242.338 162.587 242.22C162.51 242.103 162.42 242.018 162.316 241.964C162.23 241.916 162.134 241.887 162.027 241.875C161.925 241.859 161.842 241.849 161.777 241.845L160.072 241.733L159.968 243.326ZM160.168 240.266L161.328 240.342C161.477 240.352 161.617 240.354 161.748 240.348C161.885 240.339 161.998 240.316 162.09 240.28C162.214 240.232 162.311 240.149 162.379 240.032C162.448 239.91 162.488 239.773 162.498 239.619C162.508 239.456 162.483 239.307 162.422 239.172C162.365 239.033 162.262 238.935 162.111 238.878C162.011 238.834 161.882 238.805 161.724 238.79C161.571 238.775 161.473 238.766 161.431 238.763L160.272 238.687L160.168 240.266Z" fill="white"/>
</svg>
