<svg width="1065" height="223" viewBox="0 0 1065 223" fill="none" xmlns="http://www.w3.org/2000/svg">
<rect x="0.75" y="32.9681" width="406.657" height="151.928" rx="75.9642" fill="#3C1C79"/>
<path d="M125.464 72.7483H143.668C145.259 72.7483 145.806 73.2954 145.806 74.887V79.3634C145.806 80.955 145.259 81.4524 143.668 81.4524H131.333L130.985 84.934H134.317C143.021 84.934 147.348 89.7586 147.348 96.7716C147.348 100.303 146.155 103.188 143.767 105.426C141.33 107.714 138.047 108.858 133.869 108.858C125.911 108.858 121.534 106.271 119.396 100.651C118.849 99.1093 119.246 98.5124 120.689 97.9653L126.011 95.9758C127.354 95.4287 128 95.6774 128.597 97.2192C129.343 99.0595 130.985 100.005 133.422 100.005C135.859 100.005 137.102 98.7611 137.102 96.3239C137.102 94.0857 135.759 92.9418 133.123 92.9418H122.778C120.987 92.9418 120.44 92.2455 120.589 90.5046L122.131 75.7325C122.38 73.4943 123.126 72.7483 125.464 72.7483ZM160.791 101.397L157.111 112.29C156.564 113.682 156.017 114.18 154.475 114.18H151.689C150.446 114.18 150.148 113.881 150.297 112.737L151.689 101.397C151.888 99.5569 152.485 98.8606 154.226 98.8606H158.852C160.742 98.8606 161.388 99.7061 160.791 101.397ZM165.061 95.8763V84.9837C165.061 77.0257 170.283 72.0519 179.236 72.0519C188.189 72.0519 193.411 77.0257 193.411 84.9837V95.8763C193.411 103.984 188.189 108.858 179.236 108.858C170.283 108.858 165.061 103.984 165.061 95.8763ZM183.563 96.2742V84.5858C183.563 82.1487 181.972 80.756 179.236 80.756C176.5 80.756 174.909 82.1487 174.909 84.5858V96.2742C174.909 98.7114 176.5 100.154 179.236 100.154C181.972 100.154 183.563 98.7114 183.563 96.2742ZM198.307 95.8763V84.9837C198.307 77.0257 203.53 72.0519 212.483 72.0519C221.435 72.0519 226.658 77.0257 226.658 84.9837V95.8763C226.658 103.984 221.435 108.858 212.483 108.858C203.53 108.858 198.307 103.984 198.307 95.8763ZM216.81 96.2742V84.5858C216.81 82.1487 215.218 80.756 212.483 80.756C209.747 80.756 208.155 82.1487 208.155 84.5858V96.2742C208.155 98.7114 209.747 100.154 212.483 100.154C215.218 100.154 216.81 98.7114 216.81 96.2742ZM231.554 95.8763V84.9837C231.554 77.0257 236.776 72.0519 245.729 72.0519C254.682 72.0519 259.904 77.0257 259.904 84.9837V95.8763C259.904 103.984 254.682 108.858 245.729 108.858C236.776 108.858 231.554 103.984 231.554 95.8763ZM250.056 96.2742V84.5858C250.056 82.1487 248.465 80.756 245.729 80.756C242.993 80.756 241.402 82.1487 241.402 84.5858V96.2742C241.402 98.7114 242.993 100.154 245.729 100.154C248.465 100.154 250.056 98.7114 250.056 96.2742ZM280.667 87.7193H286.934C288.525 87.7193 289.023 88.2664 289.023 89.858V93.7873C289.023 95.3789 288.525 95.926 286.934 95.926H280.667V102.193C280.667 103.785 280.12 104.282 278.528 104.282H274.599C273.007 104.282 272.46 103.785 272.46 102.193V95.926H266.243C264.651 95.926 264.154 95.3789 264.154 93.7873V89.858C264.154 88.2664 264.651 87.7193 266.243 87.7193H272.46V81.5021C272.46 79.9105 273.007 79.4131 274.599 79.4131H278.528C280.12 79.4131 280.667 79.9105 280.667 81.5021V87.7193Z" fill="white"/>
<path opacity="0.7" d="M106.631 143.594V126.314H109.895V134.282L116.471 126.314H120.455L113.231 134.834L120.911 143.594H116.783L109.895 135.722V143.594H106.631ZM120.431 143.594V140.882C120.903 140.97 121.267 140.966 121.523 140.87C121.779 140.766 121.971 140.566 122.099 140.27C122.235 139.966 122.351 139.554 122.447 139.034C122.575 138.346 122.687 137.542 122.783 136.622C122.887 135.702 122.975 134.73 123.047 133.706C123.119 132.674 123.183 131.65 123.239 130.634H133.031V143.594H129.767V133.682H126.095C126.063 134.098 126.019 134.594 125.963 135.17C125.915 135.746 125.859 136.346 125.795 136.97C125.739 137.586 125.675 138.178 125.603 138.746C125.531 139.306 125.455 139.786 125.375 140.186C125.183 141.202 124.899 142.002 124.523 142.586C124.147 143.17 123.631 143.542 122.975 143.702C122.319 143.87 121.471 143.834 120.431 143.594ZM147.94 130.634V143.594H144.82V135.674L138.964 143.594H136.372V130.634H139.492V138.29L145.372 130.634H147.94ZM157.326 143.954C155.998 143.954 154.826 143.67 153.81 143.102C152.802 142.526 152.01 141.738 151.434 140.738C150.866 139.73 150.582 138.578 150.582 137.282C150.582 135.866 150.862 134.634 151.422 133.586C151.982 132.538 152.754 131.726 153.738 131.15C154.722 130.566 155.854 130.274 157.134 130.274C158.494 130.274 159.65 130.594 160.602 131.234C161.554 131.874 162.258 132.774 162.714 133.934C163.17 135.094 163.33 136.458 163.194 138.026H159.966V136.826C159.966 135.506 159.754 134.558 159.33 133.982C158.914 133.398 158.23 133.106 157.278 133.106C156.166 133.106 155.346 133.446 154.818 134.126C154.298 134.798 154.038 135.794 154.038 137.114C154.038 138.322 154.298 139.258 154.818 139.922C155.346 140.578 156.118 140.906 157.134 140.906C157.774 140.906 158.322 140.766 158.778 140.486C159.234 140.206 159.582 139.802 159.822 139.274L163.086 140.21C162.598 141.394 161.826 142.314 160.77 142.97C159.722 143.626 158.574 143.954 157.326 143.954ZM153.03 138.026V135.602H161.622V138.026H153.03ZM165.88 143.594V130.634H169.144V135.578H174.472V130.634H177.736V143.594H174.472V138.626H169.144V143.594H165.88ZM184.259 143.594V133.514H180.011V130.634H191.772V133.514H187.523V143.594H184.259ZM199.65 143.954C198.346 143.954 197.202 143.662 196.218 143.078C195.234 142.494 194.466 141.69 193.914 140.666C193.37 139.634 193.098 138.45 193.098 137.114C193.098 135.762 193.378 134.574 193.938 133.55C194.498 132.518 195.27 131.714 196.254 131.138C197.238 130.562 198.37 130.274 199.65 130.274C200.954 130.274 202.098 130.566 203.082 131.15C204.074 131.734 204.846 132.542 205.398 133.574C205.95 134.598 206.226 135.778 206.226 137.114C206.226 138.458 205.946 139.646 205.386 140.678C204.834 141.702 204.062 142.506 203.07 143.09C202.086 143.666 200.946 143.954 199.65 143.954ZM199.65 140.906C200.698 140.906 201.478 140.554 201.99 139.85C202.51 139.138 202.77 138.226 202.77 137.114C202.77 135.962 202.506 135.042 201.978 134.354C201.458 133.666 200.682 133.322 199.65 133.322C198.938 133.322 198.354 133.482 197.898 133.802C197.442 134.122 197.102 134.566 196.878 135.134C196.662 135.702 196.554 136.362 196.554 137.114C196.554 138.274 196.814 139.198 197.334 139.886C197.862 140.566 198.634 140.906 199.65 140.906ZM208.841 143.594V130.634H214.913C215.393 130.634 215.813 130.662 216.173 130.718C216.533 130.766 216.833 130.826 217.073 130.898C217.665 131.074 218.205 131.418 218.693 131.93C219.181 132.442 219.425 133.186 219.425 134.162C219.425 134.738 219.333 135.206 219.149 135.566C218.965 135.918 218.721 136.21 218.417 136.442C218.273 136.546 218.129 136.634 217.985 136.706C217.841 136.778 217.697 136.834 217.553 136.874C217.889 136.922 218.193 137.01 218.465 137.138C218.897 137.33 219.273 137.634 219.593 138.05C219.913 138.458 220.073 139.066 220.073 139.874C220.073 140.738 219.861 141.474 219.437 142.082C219.021 142.69 218.393 143.114 217.553 143.354C217.265 143.434 216.925 143.494 216.533 143.534C216.149 143.574 215.745 143.594 215.321 143.594H208.841ZM212.153 141.122H215.081C215.249 141.122 215.421 141.106 215.597 141.074C215.781 141.034 215.945 140.986 216.089 140.93C216.321 140.834 216.485 140.67 216.581 140.438C216.685 140.206 216.737 139.97 216.737 139.73C216.737 139.394 216.661 139.13 216.509 138.938C216.365 138.746 216.201 138.61 216.017 138.53C215.865 138.458 215.697 138.418 215.513 138.41C215.337 138.394 215.193 138.386 215.081 138.386H212.153V141.122ZM212.153 135.866H214.145C214.401 135.866 214.641 135.854 214.865 135.83C215.097 135.798 215.289 135.746 215.441 135.674C215.649 135.578 215.805 135.426 215.909 135.218C216.013 135.002 216.065 134.762 216.065 134.498C216.065 134.218 216.005 133.966 215.885 133.742C215.773 133.51 215.585 133.354 215.321 133.274C215.145 133.21 214.921 133.174 214.649 133.166C214.385 133.158 214.217 133.154 214.145 133.154H212.153V135.866ZM227.263 143.594V130.634H233.335C233.815 130.634 234.235 130.662 234.595 130.718C234.955 130.766 235.255 130.826 235.495 130.898C236.087 131.074 236.627 131.418 237.115 131.93C237.603 132.442 237.847 133.186 237.847 134.162C237.847 134.738 237.755 135.206 237.571 135.566C237.387 135.918 237.143 136.21 236.839 136.442C236.695 136.546 236.551 136.634 236.407 136.706C236.263 136.778 236.119 136.834 235.975 136.874C236.311 136.922 236.615 137.01 236.887 137.138C237.319 137.33 237.695 137.634 238.015 138.05C238.335 138.458 238.495 139.066 238.495 139.874C238.495 140.738 238.283 141.474 237.859 142.082C237.443 142.69 236.815 143.114 235.975 143.354C235.687 143.434 235.347 143.494 234.955 143.534C234.571 143.574 234.167 143.594 233.743 143.594H227.263ZM230.575 141.122H233.503C233.671 141.122 233.843 141.106 234.019 141.074C234.203 141.034 234.367 140.986 234.511 140.93C234.743 140.834 234.907 140.67 235.003 140.438C235.107 140.206 235.159 139.97 235.159 139.73C235.159 139.394 235.083 139.13 234.931 138.938C234.787 138.746 234.623 138.61 234.439 138.53C234.287 138.458 234.119 138.418 233.935 138.41C233.759 138.394 233.615 138.386 233.503 138.386H230.575V141.122ZM230.575 135.866H232.567C232.823 135.866 233.063 135.854 233.287 135.83C233.519 135.798 233.711 135.746 233.863 135.674C234.071 135.578 234.227 135.426 234.331 135.218C234.435 135.002 234.487 134.762 234.487 134.498C234.487 134.218 234.427 133.966 234.307 133.742C234.195 133.51 234.007 133.354 233.743 133.274C233.567 133.21 233.343 133.174 233.071 133.166C232.807 133.158 232.639 133.154 232.567 133.154H230.575V135.866ZM244.749 146.474V141.074C245.437 141.074 245.925 140.834 246.213 140.354C246.509 139.874 246.741 139.018 246.909 137.786C247.005 137.074 247.085 136.326 247.149 135.542C247.221 134.758 247.281 133.954 247.329 133.13C247.377 132.306 247.421 131.474 247.461 130.634H257.469V141.074H258.789V146.474H255.717V143.594H247.821V146.474H244.749ZM248.925 141.074H254.205V133.154H250.293C250.269 133.594 250.241 134.034 250.209 134.474C250.185 134.914 250.153 135.35 250.113 135.782C250.081 136.214 250.049 136.634 250.017 137.042C249.985 137.442 249.949 137.826 249.909 138.194C249.837 138.898 249.737 139.47 249.609 139.91C249.481 140.35 249.253 140.738 248.925 141.074ZM267.201 143.954C265.873 143.954 264.701 143.67 263.685 143.102C262.677 142.526 261.885 141.738 261.309 140.738C260.741 139.73 260.457 138.578 260.457 137.282C260.457 135.866 260.737 134.634 261.297 133.586C261.857 132.538 262.629 131.726 263.613 131.15C264.597 130.566 265.729 130.274 267.009 130.274C268.369 130.274 269.525 130.594 270.477 131.234C271.429 131.874 272.133 132.774 272.589 133.934C273.045 135.094 273.205 136.458 273.069 138.026H269.841V136.826C269.841 135.506 269.629 134.558 269.205 133.982C268.789 133.398 268.105 133.106 267.153 133.106C266.041 133.106 265.221 133.446 264.693 134.126C264.173 134.798 263.913 135.794 263.913 137.114C263.913 138.322 264.173 139.258 264.693 139.922C265.221 140.578 265.993 140.906 267.009 140.906C267.649 140.906 268.197 140.766 268.653 140.486C269.109 140.206 269.457 139.802 269.697 139.274L272.961 140.21C272.473 141.394 271.701 142.314 270.645 142.97C269.597 143.626 268.449 143.954 267.201 143.954ZM262.905 138.026V135.602H271.497V138.026H262.905ZM275.755 143.594V130.634H279.019V135.578H284.347V130.634H287.611V143.594H284.347V138.626H279.019V143.594H275.755ZM290.942 143.594V130.634H294.206V134.762H296.294C296.654 134.762 297.074 134.77 297.554 134.786C298.034 134.802 298.43 134.842 298.742 134.906C299.502 135.074 300.142 135.342 300.662 135.71C301.182 136.078 301.574 136.554 301.838 137.138C302.11 137.714 302.246 138.402 302.246 139.202C302.246 140.354 301.946 141.282 301.346 141.986C300.754 142.682 299.894 143.162 298.766 143.426C298.454 143.498 298.054 143.546 297.566 143.57C297.078 143.586 296.654 143.594 296.294 143.594H290.942ZM294.206 141.074H296.654C296.798 141.074 296.958 141.066 297.134 141.05C297.31 141.034 297.486 141.002 297.662 140.954C297.998 140.858 298.294 140.646 298.55 140.318C298.806 139.99 298.934 139.618 298.934 139.202C298.934 138.746 298.802 138.358 298.538 138.038C298.274 137.71 297.966 137.498 297.614 137.402C297.446 137.354 297.278 137.322 297.11 137.306C296.942 137.29 296.79 137.282 296.654 137.282H294.206V141.074Z" fill="white"/>
<rect x="312.719" y="71.7968" width="406.657" height="151.928" rx="75.9642" transform="rotate(-6.81089 312.719 71.7968)" fill="#270F69"/>
<path d="M440.779 98.6685C443.121 100.242 444.459 102.637 444.83 105.748C445.202 108.86 444.207 111.433 441.84 113.419C445.305 114.758 447.266 117.329 447.72 121.132C448.546 128.046 444.567 132.478 435.677 133.54C428.072 134.449 422.89 132.162 420.076 126.638C419.423 125.363 419.761 124.421 421.091 123.811L425.724 121.505C427.19 120.779 427.769 121.01 428.55 122.52C429.594 124.549 431.403 125.435 433.922 125.134C436.49 124.827 437.656 123.686 437.426 121.76C437.196 119.834 435.991 118.976 433.818 119.236L430.806 119.596C429.225 119.784 428.667 119.3 428.484 117.769L427.994 113.67C427.805 112.09 428.234 111.487 429.815 111.299L431.988 111.039C434.21 110.774 435.24 109.749 435.022 107.922C434.803 106.094 433.561 105.341 431.339 105.607C428.722 105.919 427.735 106.888 427.08 109.371C426.72 110.967 426.07 111.395 424.572 111.023L419.526 109.873C418.041 109.599 417.502 108.862 417.874 107.365C419.357 101.327 423.855 97.8847 431.411 96.9822C435.313 96.5162 438.437 97.0948 440.779 98.6685ZM451.175 118.615L449.883 107.8C448.939 99.8978 453.535 94.3398 462.425 93.2781C471.314 92.2164 477.09 96.5357 478.034 104.438L479.325 115.253C480.287 123.303 475.679 128.763 466.79 129.824C457.9 130.886 452.136 126.665 451.175 118.615ZM469.594 116.816L468.208 105.21C467.919 102.79 466.173 101.596 463.457 101.921C460.741 102.245 459.325 103.817 459.614 106.237L461.001 117.843C461.29 120.263 463.041 121.506 465.757 121.182C468.474 120.857 469.883 119.236 469.594 116.816ZM484.187 114.673L482.895 103.857C481.951 95.955 486.547 90.397 495.437 89.3353C504.326 88.2736 510.102 92.5929 511.045 100.495L512.337 111.31C513.299 119.36 508.691 124.82 499.802 125.881C490.912 126.943 485.148 122.723 484.187 114.673ZM502.606 112.873L501.22 101.268C500.931 98.8476 499.185 97.6536 496.469 97.978C493.753 98.3024 492.337 99.874 492.626 102.294L494.013 113.9C494.302 116.32 496.053 117.563 498.769 117.239C501.486 116.914 502.895 115.293 502.606 112.873ZM527.093 115.108L524.731 126.36C524.352 127.808 523.868 128.367 522.337 128.55L519.572 128.88C518.337 129.027 518.005 128.767 518.018 127.613L518.056 116.188C518.035 114.337 518.545 113.575 520.274 113.368L524.867 112.819C526.743 112.595 527.486 113.358 527.093 115.108ZM530.678 109.12L529.386 98.3042C528.442 90.4024 533.038 84.8444 541.928 83.7826C550.817 82.7209 556.593 87.0402 557.536 94.9421L558.828 105.758C559.79 113.808 555.182 119.267 546.293 120.329C537.403 121.391 531.639 117.17 530.678 109.12ZM549.097 107.321L547.711 95.7149C547.422 93.2949 545.676 92.1009 542.96 92.4253C540.244 92.7497 538.828 94.3213 539.117 96.7412L540.504 108.347C540.793 110.767 542.544 112.011 545.26 111.686C547.977 111.362 549.386 109.741 549.097 107.321ZM563.69 105.177L562.398 94.3614C561.454 86.4596 566.05 80.9016 574.94 79.8398C583.829 78.7781 589.605 83.0974 590.548 90.9993L591.84 101.815C592.802 109.865 588.194 115.324 579.305 116.386C570.415 117.448 564.651 113.227 563.69 105.177ZM582.109 103.378L580.723 91.7721C580.434 89.3522 578.688 88.1581 575.972 88.4825C573.256 88.8069 571.84 90.3785 572.129 92.7984L573.516 104.404C573.805 106.824 575.556 108.068 578.272 107.743C580.989 107.419 582.398 105.798 582.109 103.378ZM596.702 101.234L595.41 90.4186C594.466 82.5168 599.062 76.9588 607.952 75.897C616.841 74.8353 622.617 79.1546 623.56 87.0565L624.852 97.8722C625.814 105.922 621.206 111.381 612.316 112.443C603.427 113.505 597.663 109.284 596.702 101.234ZM615.121 99.4352L613.735 87.8293C613.446 85.4094 611.7 84.2153 608.984 84.5397C606.268 84.8641 604.852 86.4357 605.141 88.8556L606.527 100.462C606.817 102.881 608.568 104.125 611.284 103.801C614 103.476 615.41 101.855 615.121 99.4352Z" fill="white"/>
<path opacity="0.7" d="M418.699 170.914C417.484 171.059 416.394 171.008 415.43 170.761C414.474 170.512 413.648 170.148 412.955 169.667C412.26 169.177 411.701 168.648 411.278 168.078L413.791 165.844C414.029 166.219 414.346 166.58 414.742 166.927C415.138 167.275 415.641 167.541 416.252 167.726C416.862 167.911 417.604 167.951 418.478 167.847C419.304 167.748 419.953 167.55 420.425 167.252C420.905 166.953 421.234 166.603 421.411 166.203C421.597 165.802 421.665 165.395 421.616 164.982C421.551 164.434 421.338 164.033 420.977 163.778C420.624 163.522 420.187 163.368 419.665 163.318C419.142 163.259 418.598 163.256 418.032 163.307C417.482 163.357 417.084 163.393 416.836 163.414C416.597 163.435 416.434 163.45 416.346 163.46C416.267 163.47 416.192 163.479 416.12 163.488L415.756 160.437C415.859 160.425 416.01 160.407 416.209 160.383C416.415 160.358 416.622 160.334 416.828 160.309C417.042 160.276 417.215 160.247 417.35 160.223C418.179 160.083 418.852 159.818 419.369 159.426C419.894 159.032 420.116 158.49 420.033 157.799C419.957 157.164 419.647 156.689 419.102 156.376C418.565 156.061 417.879 155.954 417.045 156.053C416.259 156.147 415.576 156.402 414.997 156.818C414.425 157.224 414.021 157.647 413.783 158.087L411.282 155.968C411.804 155.277 412.539 154.65 413.486 154.085C414.434 153.521 415.532 153.164 416.779 153.015C417.533 152.925 418.284 152.936 419.031 153.049C419.776 153.153 420.463 153.373 421.091 153.709C421.719 154.037 422.241 154.494 422.657 155.081C423.082 155.667 423.346 156.397 423.45 157.27C423.539 158.009 423.491 158.724 423.308 159.414C423.123 160.097 422.812 160.69 422.372 161.194C423.125 161.426 423.732 161.821 424.193 162.378C424.655 162.935 424.94 163.667 425.048 164.572C425.183 165.708 424.983 166.727 424.446 167.629C423.916 168.522 423.146 169.255 422.134 169.827C421.131 170.398 419.986 170.76 418.699 170.914ZM431.901 169.337C430.98 169.447 430.176 169.366 429.491 169.093C428.813 168.812 428.272 168.397 427.868 167.849C427.471 167.292 427.23 166.656 427.145 165.941C427.074 165.346 427.1 164.791 427.224 164.276C427.348 163.762 427.59 163.294 427.95 162.872C428.318 162.442 428.832 162.058 429.493 161.721C429.949 161.489 430.498 161.267 431.141 161.053C431.784 160.839 432.516 160.623 433.336 160.404C434.155 160.177 435.055 159.929 436.038 159.658L434.947 160.441C434.856 159.679 434.607 159.14 434.199 158.827C433.791 158.513 433.158 158.407 432.3 158.51C431.823 158.567 431.34 158.741 430.852 159.033C430.363 159.325 430.05 159.777 429.914 160.39L426.872 159.81C427.07 158.707 427.578 157.768 428.396 156.994C429.214 156.219 430.398 155.74 431.947 155.555C433.083 155.419 434.112 155.473 435.036 155.717C435.959 155.962 436.699 156.486 437.254 157.289C437.565 157.736 437.773 158.194 437.878 158.665C437.982 159.136 438.07 159.665 438.14 160.253L439.079 168.117L436.243 168.456L435.927 165.811L436.398 166.311C435.874 167.251 435.269 167.96 434.585 168.437C433.908 168.904 433.013 169.204 431.901 169.337ZM432.288 166.705C432.883 166.634 433.371 166.471 433.752 166.216C434.139 165.952 434.436 165.671 434.642 165.372C434.856 165.073 434.996 164.826 435.061 164.633C435.187 164.264 435.233 163.847 435.202 163.384C435.178 162.911 435.147 162.52 435.11 162.21L436.092 162.335C435.15 162.608 434.388 162.837 433.805 163.019C433.222 163.193 432.752 163.346 432.398 163.477C432.043 163.608 431.732 163.742 431.467 163.878C431.164 164.043 430.922 164.213 430.742 164.388C430.568 164.554 430.444 164.73 430.37 164.916C430.303 165.101 430.283 165.301 430.308 165.515C430.344 165.809 430.445 166.055 430.614 166.252C430.79 166.441 431.019 166.574 431.302 166.653C431.586 166.732 431.914 166.749 432.288 166.705ZM449.755 166.842L449.266 162.743L447.192 162.991C446.922 163.023 446.553 163.063 446.083 163.111C445.62 163.151 445.182 163.159 444.768 163.136C443.722 163.075 442.827 162.731 442.083 162.103C441.347 161.474 440.907 160.551 440.762 159.336C440.62 158.152 440.82 157.162 441.361 156.364C441.903 155.566 442.686 155.005 443.71 154.681C444.129 154.543 444.564 154.442 445.016 154.38C445.475 154.309 445.851 154.256 446.145 154.221L451.459 153.587L452.996 166.455L449.755 166.842ZM441.462 167.833L443.8 162.719L447.137 162.321L444.846 167.429L441.462 167.833ZM446.536 160.532L448.967 160.241L448.517 156.476L446.086 156.766C445.943 156.783 445.786 156.81 445.613 156.847C445.448 156.883 445.277 156.935 445.1 157.005C444.885 157.095 444.693 157.239 444.523 157.436C444.352 157.626 444.222 157.851 444.132 158.112C444.042 158.364 444.013 158.633 444.047 158.919C444.101 159.372 444.283 159.741 444.591 160.027C444.898 160.304 445.224 160.471 445.569 160.526C445.741 160.554 445.912 160.566 446.081 160.562C446.257 160.557 446.409 160.547 446.536 160.532ZM456.303 166.06L454.766 153.192L460.795 152.472C461.272 152.415 461.692 152.393 462.056 152.406C462.419 152.411 462.724 152.435 462.971 152.478C463.58 152.582 464.157 152.86 464.702 153.31C465.247 153.761 465.578 154.471 465.693 155.44C465.762 156.012 465.726 156.487 465.586 156.866C465.445 157.238 465.237 157.557 464.963 157.823C464.832 157.943 464.7 158.048 464.565 158.136C464.431 158.225 464.295 158.298 464.156 158.355C464.496 158.362 464.808 158.414 465.093 158.509C465.545 158.648 465.954 158.905 466.321 159.28C466.688 159.647 466.918 160.232 467.014 161.035C467.117 161.892 466.994 162.648 466.645 163.302C466.304 163.955 465.73 164.451 464.925 164.789C464.648 164.902 464.318 165.002 463.933 165.088C463.557 165.174 463.158 165.242 462.737 165.292L456.303 166.06ZM459.298 163.213L462.206 162.866C462.372 162.846 462.541 162.81 462.712 162.757C462.89 162.695 463.047 162.628 463.184 162.556C463.403 162.433 463.546 162.25 463.614 162.009C463.69 161.766 463.713 161.525 463.685 161.287C463.645 160.954 463.538 160.7 463.364 160.528C463.199 160.354 463.02 160.239 462.828 160.181C462.668 160.128 462.497 160.108 462.313 160.122C462.136 160.127 461.992 160.136 461.881 160.149L458.974 160.496L459.298 163.213ZM458.675 157.994L460.653 157.758C460.907 157.727 461.144 157.687 461.363 157.637C461.59 157.577 461.775 157.503 461.917 157.413C462.112 157.293 462.249 157.124 462.328 156.905C462.405 156.678 462.428 156.434 462.397 156.172C462.364 155.894 462.274 155.651 462.129 155.442C461.99 155.225 461.785 155.093 461.513 155.045C461.331 155.002 461.104 154.993 460.833 155.017C460.57 155.04 460.403 155.056 460.331 155.065L458.353 155.301L458.675 157.994ZM475.681 164.108C474.386 164.263 473.216 164.109 472.17 163.646C471.123 163.182 470.265 162.475 469.596 161.524C468.933 160.564 468.523 159.42 468.364 158.094C468.204 156.751 468.341 155.538 468.776 154.455C469.209 153.364 469.881 152.474 470.789 151.786C471.698 151.097 472.788 150.677 474.059 150.525C475.354 150.37 476.524 150.525 477.571 150.988C478.625 151.45 479.487 152.161 480.158 153.12C480.827 154.071 481.241 155.21 481.4 156.537C481.559 157.871 481.422 159.084 480.988 160.175C480.562 161.257 479.89 162.147 478.975 162.845C478.066 163.534 476.968 163.955 475.681 164.108ZM475.32 161.082C476.36 160.958 477.093 160.516 477.518 159.756C477.95 158.987 478.1 158.051 477.968 156.947C477.831 155.803 477.46 154.921 476.854 154.3C476.256 153.679 475.445 153.429 474.42 153.551C473.713 153.636 473.152 153.864 472.738 154.236C472.323 154.608 472.038 155.089 471.883 155.679C471.736 156.269 471.707 156.937 471.796 157.684C471.933 158.836 472.301 159.722 472.899 160.344C473.504 160.956 474.311 161.202 475.32 161.082ZM484.765 162.661L483.251 149.79L486.54 149.397L487.28 155.593L490.901 148.876L494.905 148.398L491.026 155.387L496.751 161.229L492.533 161.733L487.337 156.069L488.077 162.265L484.765 162.661ZM508.541 160.184C507.247 160.338 506.076 160.184 505.03 159.721C503.983 159.258 503.126 158.55 502.456 157.599C501.793 156.639 501.383 155.496 501.224 154.169C501.064 152.827 501.201 151.614 501.636 150.531C502.07 149.439 502.741 148.55 503.649 147.861C504.558 147.172 505.648 146.752 506.919 146.6C508.214 146.446 509.384 146.6 510.431 147.063C511.485 147.525 512.347 148.236 513.018 149.195C513.687 150.147 514.101 151.286 514.26 152.612C514.419 153.947 514.282 155.159 513.848 156.251C513.422 157.333 512.751 158.223 511.835 158.92C510.926 159.609 509.828 160.03 508.541 160.184ZM508.18 157.157C509.221 157.033 509.953 156.591 510.378 155.831C510.81 155.063 510.96 154.126 510.828 153.022C510.692 151.878 510.32 150.996 509.714 150.375C509.117 149.754 508.305 149.504 507.281 149.627C506.574 149.711 506.013 149.939 505.598 150.311C505.183 150.683 504.898 151.164 504.743 151.755C504.596 152.344 504.567 153.012 504.656 153.759C504.794 154.911 505.161 155.798 505.759 156.419C506.364 157.032 507.171 157.278 508.18 157.157ZM523.116 158.467C521.874 158.599 520.793 158.45 519.872 158.021C518.949 157.583 518.185 156.921 517.58 156.035C516.982 155.139 516.548 154.071 516.279 152.83C516.135 152.163 516.028 151.406 515.959 150.56C515.898 149.705 515.889 148.86 515.935 148.025C515.98 147.19 516.098 146.463 516.29 145.844C516.479 145.265 516.745 144.726 517.088 144.226C517.438 143.716 517.821 143.276 518.235 142.904C518.723 142.467 519.261 142.113 519.849 141.841C520.436 141.562 521.06 141.326 521.722 141.134C522.384 140.942 523.071 140.759 523.784 140.586C524.504 140.411 525.229 140.208 525.959 139.976L526.586 142.801C526.148 142.974 525.642 143.123 525.068 143.248C524.495 143.373 523.907 143.504 523.303 143.64C522.698 143.769 522.125 143.93 521.584 144.124C521.043 144.317 520.585 144.565 520.21 144.868C519.703 145.275 519.339 145.802 519.118 146.448C518.904 147.086 518.81 147.718 518.837 148.343C519.244 147.569 519.785 147.005 520.459 146.651C521.142 146.295 521.829 146.076 522.52 145.994C523.656 145.858 524.662 146.016 525.538 146.467C526.42 146.91 527.135 147.566 527.682 148.435C528.228 149.296 528.567 150.283 528.7 151.395C528.851 152.658 528.709 153.799 528.275 154.818C527.849 155.835 527.191 156.667 526.301 157.313C525.411 157.951 524.349 158.336 523.116 158.467ZM522.897 155.424C523.819 155.314 524.479 154.945 524.88 154.317C525.28 153.689 525.423 152.898 525.31 151.945C525.193 150.968 524.859 150.23 524.308 149.732C523.764 149.225 523.043 149.025 522.146 149.132C521.232 149.241 520.571 149.606 520.162 150.227C519.759 150.839 519.617 151.634 519.733 152.611C519.854 153.62 520.189 154.369 520.739 154.86C521.288 155.342 522.007 155.53 522.897 155.424ZM538.389 156.619C537.11 156.772 536.006 156.601 535.077 156.108C534.148 155.615 533.403 154.882 532.844 153.909C532.293 152.936 531.94 151.806 531.787 150.519C531.633 149.232 531.709 148.051 532.016 146.975C532.322 145.899 532.857 145.013 533.62 144.318C534.383 143.622 535.376 143.201 536.599 143.055C537.831 142.908 538.938 143.074 539.922 143.553C540.906 144.032 541.709 144.753 542.332 145.718C542.961 146.674 543.355 147.808 543.511 149.118C543.665 150.405 543.553 151.591 543.175 152.675C542.805 153.759 542.21 154.652 541.392 155.354C540.573 156.056 539.572 156.478 538.389 156.619ZM532.69 162.738L530.47 144.15L533.33 143.808L534.383 152.626L534.788 152.577L535.955 162.348L532.69 162.738ZM537.52 153.798C538.219 153.715 538.77 153.471 539.173 153.069C539.576 152.666 539.85 152.158 539.994 151.545C540.137 150.923 540.166 150.251 540.08 149.528C539.994 148.813 539.805 148.175 539.513 147.614C539.219 147.045 538.817 146.613 538.307 146.32C537.803 146.018 537.19 145.909 536.467 145.996C535.792 146.076 535.263 146.305 534.881 146.681C534.507 147.056 534.26 147.549 534.139 148.159C534.019 148.77 534.005 149.464 534.098 150.243C534.191 151.021 534.368 151.693 534.629 152.258C534.89 152.823 535.254 153.243 535.722 153.517C536.198 153.791 536.797 153.884 537.52 153.798ZM550.519 155.17C549.597 155.28 548.794 155.199 548.109 154.926C547.431 154.645 546.89 154.23 546.486 153.682C546.089 153.125 545.848 152.489 545.763 151.774C545.691 151.178 545.718 150.623 545.842 150.109C545.966 149.595 546.208 149.127 546.568 148.705C546.936 148.274 547.45 147.891 548.111 147.554C548.566 147.322 549.116 147.1 549.759 146.886C550.402 146.672 551.134 146.456 551.954 146.237C552.772 146.01 553.673 145.762 554.656 145.491L553.565 146.274C553.474 145.511 553.225 144.973 552.817 144.659C552.409 144.346 551.776 144.24 550.918 144.342C550.441 144.399 549.958 144.574 549.469 144.866C548.981 145.158 548.668 145.61 548.532 146.223L545.49 145.643C545.688 144.54 546.196 143.601 547.014 142.827C547.832 142.052 549.016 141.572 550.565 141.387C551.701 141.252 552.73 141.306 553.654 141.55C554.577 141.794 555.317 142.318 555.872 143.122C556.183 143.569 556.391 144.027 556.495 144.498C556.6 144.969 556.687 145.498 556.758 146.086L557.697 153.95L554.861 154.289L554.545 151.644L555.016 152.143C554.492 153.084 553.887 153.793 553.203 154.269C552.526 154.737 551.631 155.037 550.519 155.17ZM550.905 152.538C551.501 152.467 551.989 152.303 552.37 152.049C552.757 151.785 553.054 151.504 553.26 151.205C553.474 150.906 553.614 150.659 553.679 150.466C553.804 150.097 553.851 149.68 553.82 149.217C553.796 148.744 553.765 148.353 553.728 148.043L554.71 148.168C553.768 148.441 553.005 148.669 552.423 148.852C551.84 149.026 551.37 149.179 551.015 149.31C550.66 149.441 550.35 149.575 550.084 149.711C549.782 149.876 549.54 150.046 549.36 150.221C549.186 150.386 549.062 150.562 548.988 150.748C548.921 150.934 548.901 151.134 548.926 151.348C548.961 151.642 549.063 151.888 549.232 152.085C549.408 152.273 549.637 152.407 549.92 152.486C550.204 152.565 550.532 152.582 550.905 152.538ZM566.262 153.314C565.021 153.446 563.94 153.297 563.018 152.868C562.096 152.43 561.332 151.768 560.726 150.881C560.128 149.986 559.694 148.918 559.425 147.677C559.281 147.009 559.175 146.253 559.106 145.407C559.044 144.552 559.036 143.707 559.081 142.872C559.126 142.037 559.245 141.309 559.437 140.69C559.626 140.112 559.891 139.573 560.235 139.072C560.585 138.563 560.967 138.123 561.382 137.751C561.87 137.314 562.407 136.96 562.995 136.688C563.582 136.408 564.207 136.173 564.869 135.981C565.531 135.789 566.218 135.606 566.93 135.433C567.651 135.258 568.376 135.054 569.105 134.822L569.733 137.648C569.294 137.821 568.788 137.97 568.215 138.095C567.642 138.22 567.053 138.351 566.449 138.487C565.844 138.616 565.271 138.777 564.73 138.97C564.189 139.164 563.732 139.412 563.357 139.715C562.849 140.122 562.485 140.648 562.265 141.295C562.051 141.933 561.957 142.565 561.983 143.19C562.39 142.416 562.931 141.852 563.606 141.498C564.289 141.142 564.976 140.923 565.667 140.841C566.803 140.705 567.808 140.863 568.684 141.314C569.567 141.757 570.282 142.412 570.829 143.282C571.375 144.143 571.714 145.13 571.847 146.242C571.998 147.505 571.856 148.646 571.422 149.664C570.995 150.682 570.337 151.514 569.448 152.16C568.557 152.798 567.495 153.183 566.262 153.314ZM566.044 150.27C566.965 150.16 567.626 149.791 568.026 149.163C568.427 148.536 568.57 147.745 568.456 146.792C568.339 145.815 568.006 145.077 567.455 144.579C566.911 144.072 566.19 143.872 565.292 143.979C564.379 144.088 563.717 144.453 563.308 145.074C562.906 145.686 562.763 146.481 562.88 147.458C563 148.467 563.335 149.216 563.885 149.706C564.435 150.189 565.154 150.377 566.044 150.27ZM581.011 151.528C579.716 151.683 578.545 151.529 577.499 151.065C576.453 150.602 575.595 149.895 574.925 148.944C574.263 147.984 573.852 146.84 573.694 145.514C573.533 144.171 573.671 142.958 574.105 141.875C574.539 140.784 575.21 139.894 576.119 139.205C577.028 138.517 578.117 138.097 579.388 137.945C580.683 137.79 581.854 137.944 582.9 138.408C583.954 138.87 584.817 139.581 585.487 140.54C586.157 141.491 586.571 142.63 586.729 143.957C586.889 145.291 586.751 146.504 586.318 147.595C585.891 148.677 585.22 149.567 584.304 150.265C583.395 150.953 582.298 151.375 581.011 151.528ZM580.649 148.502C581.69 148.378 582.423 147.935 582.848 147.176C583.279 146.407 583.429 145.471 583.298 144.367C583.161 143.223 582.79 142.34 582.184 141.72C581.586 141.098 580.775 140.849 579.75 140.971C579.043 141.056 578.482 141.284 578.067 141.656C577.652 142.028 577.367 142.509 577.212 143.099C577.065 143.689 577.036 144.357 577.125 145.104C577.263 146.256 577.631 147.142 578.229 147.764C578.834 148.376 579.64 148.622 580.649 148.502ZM593.031 149.73L591.835 139.721L587.617 140.225L587.276 137.365L598.953 135.971L599.294 138.83L595.076 139.334L596.272 149.343L593.031 149.73ZM606.116 148.53C605.194 148.64 604.391 148.559 603.706 148.286C603.028 148.004 602.487 147.59 602.083 147.042C601.686 146.485 601.445 145.849 601.36 145.134C601.288 144.538 601.315 143.983 601.439 143.469C601.563 142.954 601.805 142.486 602.165 142.065C602.533 141.634 603.047 141.25 603.708 140.914C604.163 140.682 604.713 140.459 605.356 140.245C605.999 140.032 606.731 139.815 607.551 139.597C608.37 139.37 609.27 139.121 610.253 138.851L609.162 139.634C609.071 138.871 608.822 138.333 608.414 138.019C608.006 137.705 607.373 137.6 606.515 137.702C606.038 137.759 605.555 137.934 605.067 138.226C604.578 138.518 604.265 138.97 604.129 139.582L601.087 139.003C601.285 137.9 601.793 136.961 602.611 136.186C603.429 135.412 604.613 134.932 606.162 134.747C607.298 134.611 608.327 134.666 609.251 134.91C610.174 135.154 610.914 135.678 611.469 136.482C611.78 136.928 611.988 137.387 612.092 137.858C612.197 138.329 612.284 138.858 612.355 139.446L613.294 147.31L610.458 147.649L610.142 145.003L610.613 145.503C610.089 146.444 609.484 147.153 608.8 147.629C608.123 148.097 607.228 148.397 606.116 148.53ZM606.502 145.897C607.098 145.826 607.586 145.663 607.967 145.408C608.354 145.145 608.651 144.863 608.857 144.565C609.071 144.265 609.211 144.019 609.276 143.826C609.401 143.456 609.448 143.04 609.417 142.576C609.393 142.104 609.362 141.713 609.325 141.403L610.307 141.527C609.365 141.801 608.603 142.029 608.02 142.211C607.437 142.386 606.967 142.539 606.612 142.67C606.257 142.801 605.947 142.934 605.681 143.071C605.379 143.236 605.137 143.406 604.957 143.58C604.783 143.746 604.659 143.922 604.585 144.108C604.518 144.293 604.498 144.493 604.523 144.708C604.559 145.002 604.66 145.247 604.829 145.445C605.005 145.633 605.234 145.767 605.517 145.846C605.801 145.925 606.129 145.942 606.502 145.897ZM616.368 146.943L614.831 134.074L618.072 133.687L618.659 138.596L623.949 137.964L623.363 133.055L626.604 132.668L628.141 145.537L624.9 145.924L624.31 140.991L619.02 141.623L619.609 146.556L616.368 146.943ZM637.306 144.805C636.011 144.959 634.841 144.805 633.794 144.342C632.748 143.879 631.89 143.171 631.22 142.22C630.558 141.26 630.147 140.117 629.989 138.79C629.829 137.447 629.966 136.235 630.4 135.151C630.834 134.06 631.505 133.17 632.414 132.482C633.323 131.793 634.413 131.373 635.684 131.221C636.978 131.067 638.149 131.221 639.195 131.684C640.25 132.146 641.112 132.857 641.782 133.816C642.452 134.768 642.866 135.906 643.024 137.233C643.184 138.568 643.047 139.78 642.613 140.872C642.186 141.954 641.515 142.844 640.599 143.541C639.691 144.23 638.593 144.651 637.306 144.805ZM636.944 141.778C637.985 141.654 638.718 141.212 639.143 140.452C639.575 139.683 639.725 138.747 639.593 137.643C639.456 136.499 639.085 135.617 638.479 134.996C637.881 134.375 637.07 134.125 636.045 134.248C635.338 134.332 634.777 134.56 634.362 134.932C633.948 135.304 633.663 135.785 633.508 136.376C633.36 136.965 633.331 137.633 633.421 138.38C633.558 139.532 633.926 140.419 634.524 141.04C635.129 141.653 635.936 141.899 636.944 141.778Z" fill="white"/>
<rect x="658.461" y="0.100006" width="406.657" height="151.928" rx="75.9642" transform="rotate(3.74666 658.461 0.100006)" fill="#BB64D0"/>
<path d="M814.633 50.242L817.611 50.437C819.199 50.541 819.66 51.1195 819.559 52.6581L817.524 83.7273C817.424 85.2659 816.892 85.7794 815.303 85.6754L809.695 85.3081C808.107 85.2041 807.597 84.6224 807.697 83.0838L809.053 62.3875L805.604 64.0557C804.113 64.7556 803.09 64.3896 802.433 63.0008L800.377 58.6293C799.826 57.1478 800.113 56.5684 801.558 55.8157L811.6 50.8908C812.579 50.4066 813.591 50.1738 814.633 50.242ZM823.956 73.9803L824.667 63.111C825.187 55.1699 830.724 50.5481 839.657 51.1331C848.591 51.7181 853.477 57.0225 852.957 64.9635L852.245 75.8328C851.716 83.9227 846.186 88.4454 837.252 87.8603C828.319 87.2753 823.426 82.0702 823.956 73.9803ZM842.392 75.5863L843.156 63.923C843.315 61.491 841.818 59.9973 839.089 59.8186C836.359 59.6398 834.68 60.9255 834.52 63.3574L833.757 75.0208C833.597 77.4528 835.091 78.9961 837.821 79.1748C840.551 79.3536 842.233 78.0183 842.392 75.5863ZM857.131 76.1527L857.843 65.2835C858.363 57.3424 863.899 52.7206 872.833 53.3056C881.767 53.8906 886.653 59.195 886.133 67.136L885.421 78.0053C884.891 86.0952 879.361 90.6178 870.428 90.0328C861.494 89.4478 856.601 84.2427 857.131 76.1527ZM875.568 77.7588L876.332 66.0955C876.491 63.6635 874.994 62.1698 872.264 61.9911C869.534 61.8123 867.855 63.098 867.696 65.5299L866.932 77.1933C866.773 79.6253 868.267 81.1686 870.997 81.3473C873.726 81.5261 875.409 80.1908 875.568 77.7588ZM906.672 71.2225L912.926 71.632C914.514 71.736 914.974 72.3144 914.87 73.9026L914.614 77.8235C914.51 79.4117 913.978 79.9252 912.389 79.8212L906.136 79.4117L905.726 85.6652C905.622 87.2534 905.044 87.714 903.456 87.61L899.535 87.3532C897.947 87.2492 897.433 86.7172 897.537 85.1289L897.947 78.8754L891.743 78.4691C890.154 78.3651 889.694 77.7867 889.798 76.1985L890.055 72.2776C890.159 70.6894 890.691 70.1759 892.279 70.2799L898.483 70.6862L898.889 64.4823C898.993 62.8941 899.572 62.4335 901.16 62.5375L905.081 62.7943C906.669 62.8983 907.182 63.4303 907.078 65.0185L906.672 71.2225Z" fill="white"/>
<path opacity="0.7" d="M789.452 119.541L790.581 102.298L804.806 103.229L803.677 120.472L800.42 120.259L801.35 106.058L793.639 105.553L792.709 119.754L789.452 119.541ZM810.608 121.287C809.682 121.226 808.907 120.999 808.283 120.606C807.668 120.205 807.212 119.698 806.916 119.085C806.628 118.465 806.507 117.796 806.554 117.077C806.594 116.478 806.721 115.938 806.937 115.455C807.153 114.972 807.477 114.556 807.909 114.208C808.349 113.852 808.925 113.569 809.636 113.359C810.126 113.214 810.707 113.096 811.379 113.004C812.05 112.911 812.809 112.833 813.655 112.768C814.502 112.695 815.433 112.616 816.449 112.53L815.233 113.1C815.283 112.333 815.136 111.759 814.793 111.375C814.449 110.992 813.846 110.772 812.984 110.716C812.505 110.684 811.998 110.767 811.464 110.965C810.93 111.162 810.54 111.55 810.294 112.127L807.409 111C807.807 109.952 808.478 109.122 809.424 108.51C810.37 107.899 811.622 107.644 813.178 107.746C814.32 107.821 815.322 108.063 816.185 108.472C817.048 108.881 817.679 109.532 818.078 110.424C818.302 110.92 818.422 111.409 818.439 111.891C818.455 112.373 818.444 112.909 818.405 113.5L817.888 121.403L815.038 121.216L815.212 118.558L815.583 119.136C814.895 119.964 814.172 120.55 813.412 120.893C812.66 121.229 811.726 121.36 810.608 121.287ZM811.47 118.77C812.069 118.809 812.579 118.738 812.999 118.557C813.429 118.369 813.772 118.147 814.029 117.891C814.294 117.636 814.477 117.42 814.577 117.242C814.767 116.901 814.89 116.501 814.944 116.039C815.007 115.57 815.048 115.18 815.069 114.869L816.011 115.171C815.035 115.267 814.243 115.352 813.637 115.424C813.032 115.489 812.543 115.553 812.17 115.617C811.797 115.681 811.467 115.755 811.181 115.841C810.853 115.948 810.585 116.07 810.375 116.209C810.174 116.34 810.02 116.49 809.913 116.66C809.813 116.83 809.757 117.022 809.743 117.238C809.723 117.533 809.778 117.793 809.908 118.018C810.046 118.236 810.247 118.409 810.511 118.539C810.775 118.668 811.095 118.745 811.47 118.77ZM827.324 122.382C826.039 122.298 824.985 121.928 824.162 121.273C823.339 120.618 822.742 119.761 822.37 118.702C822.006 117.644 821.867 116.468 821.952 115.175C822.036 113.882 822.328 112.735 822.827 111.733C823.325 110.731 824.013 109.959 824.89 109.415C825.768 108.871 826.821 108.639 828.051 108.72C829.288 108.801 830.346 109.167 831.226 109.818C832.105 110.469 832.762 111.325 833.198 112.388C833.642 113.443 833.821 114.63 833.734 115.947C833.65 117.24 833.322 118.385 832.752 119.382C832.19 120.379 831.442 121.148 830.508 121.688C829.575 122.228 828.514 122.46 827.324 122.382ZM820.601 127.353L821.824 108.673L824.698 108.861L824.118 117.722L824.525 117.749L823.882 127.568L820.601 127.353ZM826.987 119.449C827.69 119.495 828.276 119.357 828.746 119.035C829.216 118.713 829.578 118.264 829.832 117.688C830.087 117.103 830.238 116.447 830.286 115.721C830.333 115.003 830.264 114.341 830.079 113.735C829.895 113.122 829.579 112.624 829.131 112.242C828.691 111.853 828.108 111.634 827.382 111.586C826.703 111.542 826.142 111.67 825.697 111.969C825.261 112.269 824.927 112.708 824.697 113.287C824.467 113.865 824.326 114.545 824.275 115.327C824.223 116.11 824.274 116.802 824.427 117.406C824.58 118.009 824.861 118.488 825.271 118.844C825.689 119.2 826.261 119.402 826.987 119.449ZM839.107 122.793L839.766 112.734L835.527 112.457L835.715 109.583L847.45 110.351L847.262 113.225L843.023 112.947L842.364 123.006L839.107 122.793ZM848.855 123.431L849.702 110.499L852.959 110.712L852.636 115.645L857.953 115.993L858.276 111.06L861.533 111.273L860.686 124.206L857.429 123.992L857.754 119.035L852.437 118.687L852.112 123.644L848.855 123.431ZM871.921 110.126L872.11 107.252L874.984 107.44L874.795 110.314L871.921 110.126ZM866.844 109.793L867.033 106.919L869.906 107.108L869.718 109.981L866.844 109.793ZM870.022 125.178C868.697 125.091 867.546 124.731 866.569 124.098C865.601 123.457 864.862 122.619 864.353 121.584C863.852 120.541 863.644 119.373 863.728 118.079C863.821 116.666 864.181 115.455 864.808 114.446C865.435 113.437 866.259 112.677 867.278 112.167C868.298 111.648 869.447 111.431 870.724 111.514C872.081 111.603 873.214 111.998 874.122 112.699C875.03 113.4 875.674 114.344 876.053 115.531C876.432 116.719 876.503 118.09 876.265 119.646L873.044 119.435L873.122 118.238C873.208 116.92 873.059 115.961 872.673 115.358C872.296 114.748 871.633 114.412 870.683 114.35C869.573 114.277 868.733 114.563 868.161 115.207C867.599 115.843 867.274 116.82 867.188 118.138C867.109 119.343 867.307 120.294 867.783 120.99C868.267 121.68 869.016 122.057 870.029 122.124C870.668 122.166 871.224 122.062 871.697 121.812C872.171 121.562 872.544 121.182 872.818 120.671L876.014 121.818C875.45 122.968 874.619 123.835 873.523 124.421C872.434 125.007 871.267 125.259 870.022 125.178ZM866.122 118.982L866.281 116.563L874.854 117.124L874.696 119.543L866.122 118.982ZM884.927 126.154C883.642 126.07 882.588 125.7 881.765 125.045C880.942 124.39 880.345 123.533 879.973 122.474C879.61 121.416 879.47 120.241 879.555 118.947C879.64 117.654 879.931 116.507 880.43 115.505C880.928 114.504 881.616 113.731 882.494 113.187C883.371 112.643 884.424 112.412 885.654 112.492C886.891 112.573 887.949 112.939 888.829 113.59C889.708 114.241 890.366 115.098 890.801 116.16C891.245 117.216 891.424 118.402 891.338 119.719C891.253 121.012 890.925 122.157 890.355 123.154C889.793 124.151 889.045 124.92 888.112 125.46C887.178 126.001 886.117 126.232 884.927 126.154ZM878.204 131.125L879.428 112.445L882.301 112.633L881.721 121.494L882.128 121.521L881.485 131.34L878.204 131.125ZM884.59 123.222C885.293 123.268 885.879 123.13 886.349 122.808C886.819 122.486 887.181 122.036 887.436 121.46C887.69 120.875 887.841 120.22 887.889 119.493C887.936 118.775 887.867 118.113 887.682 117.507C887.498 116.894 887.182 116.396 886.734 116.014C886.294 115.625 885.711 115.406 884.985 115.359C884.306 115.314 883.745 115.442 883.3 115.741C882.864 116.041 882.53 116.481 882.3 117.059C882.07 117.637 881.929 118.317 881.878 119.1C881.827 119.882 881.878 120.575 882.03 121.178C882.183 121.781 882.465 122.261 882.874 122.616C883.292 122.972 883.864 123.174 884.59 123.222ZM899.345 127.098C898.044 127.013 896.921 126.647 895.978 126C895.034 125.353 894.32 124.5 893.836 123.442C893.361 122.377 893.167 121.178 893.254 119.844C893.342 118.495 893.699 117.328 894.325 116.343C894.951 115.35 895.774 114.598 896.794 114.087C897.813 113.577 898.962 113.364 900.239 113.447C901.54 113.532 902.663 113.899 903.606 114.546C904.558 115.193 905.276 116.05 905.759 117.116C906.243 118.174 906.441 119.369 906.354 120.702C906.266 122.043 905.909 123.211 905.283 124.204C904.665 125.19 903.842 125.941 902.814 126.459C901.795 126.97 900.638 127.183 899.345 127.098ZM899.544 124.057C900.59 124.125 901.391 123.825 901.948 123.156C902.514 122.479 902.833 121.586 902.905 120.476C902.981 119.327 902.777 118.392 902.295 117.671C901.822 116.95 901.07 116.556 900.04 116.489C899.329 116.442 898.736 116.564 898.26 116.853C897.784 117.143 897.416 117.564 897.155 118.116C896.903 118.668 896.752 119.32 896.703 120.07C896.627 121.228 896.826 122.167 897.3 122.887C897.782 123.6 898.53 123.99 899.544 124.057ZM908.54 127.339L909.387 114.407L915.446 114.804C915.925 114.835 916.342 114.891 916.698 114.97C917.054 115.041 917.349 115.121 917.584 115.208C918.163 115.423 918.68 115.801 919.133 116.344C919.587 116.887 919.781 117.645 919.718 118.619C919.68 119.194 919.558 119.655 919.35 120.002C919.144 120.341 918.881 120.617 918.563 120.828C918.412 120.923 918.263 121.001 918.114 121.064C917.966 121.126 917.819 121.172 917.672 121.203C918.005 121.273 918.302 121.381 918.565 121.526C918.984 121.746 919.339 122.074 919.631 122.51C919.924 122.938 920.044 123.555 919.991 124.361C919.935 125.223 919.675 125.944 919.212 126.523C918.757 127.102 918.103 127.485 917.249 127.669C916.956 127.73 916.613 127.768 916.219 127.782C915.834 127.797 915.429 127.79 915.006 127.763L908.54 127.339ZM912.006 125.089L914.928 125.28C915.096 125.291 915.268 125.287 915.446 125.266C915.632 125.238 915.799 125.201 915.946 125.155C916.184 125.074 916.359 124.921 916.47 124.696C916.589 124.471 916.656 124.239 916.672 124C916.693 123.664 916.635 123.396 916.496 123.194C916.365 122.993 916.21 122.847 916.031 122.755C915.885 122.673 915.719 122.622 915.536 122.602C915.362 122.575 915.219 122.558 915.107 122.55L912.185 122.359L912.006 125.089ZM912.35 119.844L914.338 119.974C914.593 119.991 914.833 119.995 915.058 119.986C915.292 119.969 915.487 119.929 915.643 119.868C915.857 119.785 916.023 119.644 916.14 119.443C916.258 119.234 916.326 118.998 916.343 118.735C916.361 118.455 916.318 118.2 916.213 117.969C916.116 117.73 915.939 117.562 915.68 117.465C915.509 117.389 915.288 117.339 915.017 117.313C914.754 117.288 914.587 117.273 914.515 117.268L912.527 117.138L912.35 119.844Z" fill="white"/>
</svg>
