<svg width="321" height="975" viewBox="0 0 321 975" fill="none" xmlns="http://www.w3.org/2000/svg">
<path fill-rule="evenodd" clip-rule="evenodd" d="M-81.9908 897.867C-138.506 879.19 -174.16 829.987 -207.386 786.492C-237.412 747.186 -250.013 704.314 -263.193 660.659C-277.682 612.664 -317.613 556.427 -288.218 518.748C-258.143 480.199 -193.523 457.168 -143.553 436.8C-95.372 417.162 -61.8921 390.7 -5.16493 403.376C55.311 416.891 49.948 500.752 99.836 535.578C144.587 566.817 228.251 543.492 255.957 585.658C282.766 626.46 226.19 663.07 209.493 702.47C196.508 733.11 188.025 763.818 168.734 791.481C144.895 825.663 126.239 864.708 83.7893 882.72C35.1887 903.342 -25.599 916.503 -81.9908 897.867Z" stroke="url(#paint0_linear_29_115)"/>
<path fill-rule="evenodd" clip-rule="evenodd" d="M11.1619 881.127C-48.19 876.645 -94.6673 837.504 -137.41 803.315C-176.036 772.418 -198.613 733.856 -221.94 694.673C-247.587 651.595 -299.912 606.66 -280.481 562.999C-260.601 518.33 -203.451 480.382 -159.874 448.555C-117.859 417.867 -91.7564 384.106 -33.6467 382.715C28.3031 381.231 43.3416 463.908 100.161 485.661C151.129 505.175 226.689 462.344 263.754 496.575C299.619 529.7 253.553 578.883 246.86 621.148C241.656 654.017 240.836 685.865 228.792 717.366C213.91 756.292 205.23 798.685 168.384 826.411C126.198 858.155 70.3847 885.601 11.1619 881.127Z" stroke="url(#paint1_linear_29_115)"/>
<g opacity="0.9" filter="url(#filter0_f_29_115)">
<path fill-rule="evenodd" clip-rule="evenodd" d="M461.193 755.866C421.241 755.87 388.227 728.992 357.954 705.636C330.596 684.53 313.611 656.725 296.093 628.494C276.833 597.456 239.623 566.54 250.513 532.491C261.654 497.656 298.073 465.765 325.701 439.265C352.34 413.715 368.177 386.754 407.011 382.389C448.413 377.735 462.492 439.253 501.586 452.423C536.654 464.237 585.16 427.611 611.635 451.323C637.252 474.267 608.799 514.003 606.369 546.272C604.48 571.367 605.476 595.442 598.942 619.896C590.868 650.113 587.114 682.593 563.792 705.613C537.09 731.97 501.057 755.861 461.193 755.866Z" fill="url(#paint2_linear_29_115)"/>
</g>
<g opacity="0.6" filter="url(#filter1_f_29_115)">
<path fill-rule="evenodd" clip-rule="evenodd" d="M-0.300077 423.222C-15.3399 423.339 -27.6912 407.421 -39.0208 393.595C-49.2594 381.1 -55.5739 364.584 -62.0878 347.817C-69.2493 329.382 -83.1686 311.071 -78.9715 290.756C-74.6774 269.972 -60.8762 250.87 -50.3995 235.004C-40.298 219.707 -34.2592 203.601 -19.6272 200.889C-4.02826 197.998 1.09575 234.605 15.775 242.339C28.9427 249.276 47.308 227.318 57.2065 241.368C66.7847 254.963 55.9596 278.716 54.9525 297.947C54.1693 312.902 54.4755 327.241 51.9456 341.827C48.8195 359.851 47.3132 379.211 38.4676 392.991C28.3403 408.769 14.7071 423.105 -0.300077 423.222Z" fill="url(#paint3_linear_29_115)"/>
</g>
<defs>
<filter id="filter0_f_29_115" x="48.5547" y="182.138" width="773.703" height="773.727" filterUnits="userSpaceOnUse" color-interpolation-filters="sRGB">
<feFlood flood-opacity="0" result="BackgroundImageFix"/>
<feBlend mode="normal" in="SourceGraphic" in2="BackgroundImageFix" result="shape"/>
<feGaussianBlur stdDeviation="100" result="effect1_foregroundBlur_29_115"/>
</filter>
<filter id="filter1_f_29_115" x="-279.744" y="0.726685" width="540.879" height="622.496" filterUnits="userSpaceOnUse" color-interpolation-filters="sRGB">
<feFlood flood-opacity="0" result="BackgroundImageFix"/>
<feBlend mode="normal" in="SourceGraphic" in2="BackgroundImageFix" result="shape"/>
<feGaussianBlur stdDeviation="100" result="effect1_foregroundBlur_29_115"/>
</filter>
<linearGradient id="paint0_linear_29_115" x1="-424.055" y1="428.597" x2="164.38" y2="500.518" gradientUnits="userSpaceOnUse">
<stop stop-color="#270F69"/>
<stop offset="1" stop-color="#270F69" stop-opacity="0"/>
</linearGradient>
<linearGradient id="paint1_linear_29_115" x1="-434.062" y1="508.303" x2="154.333" y2="436.058" gradientUnits="userSpaceOnUse">
<stop stop-color="#270F69"/>
<stop offset="1" stop-color="#270F69" stop-opacity="0"/>
</linearGradient>
<linearGradient id="paint2_linear_29_115" x1="141.2" y1="588.57" x2="273.235" y2="332.724" gradientUnits="userSpaceOnUse">
<stop stop-color="#EE86FF"/>
<stop offset="1" stop-color="#270F69"/>
</linearGradient>
<linearGradient id="paint3_linear_29_115" x1="-120.284" y1="324.477" x2="-25.4616" y2="207.737" gradientUnits="userSpaceOnUse">
<stop stop-color="#EE86FF"/>
<stop offset="1" stop-color="#270F69"/>
</linearGradient>
</defs>
</svg>
