<?xml version="1.0" encoding="utf-8"?><svg xmlns="http://www.w3.org/2000/svg" xmlns:xlink="http://www.w3.org/1999/xlink"><symbol viewBox="0 0 19 19" id="plus" xmlns="http://www.w3.org/2000/svg"><path d="M18.1738 9.8681L0.178867 9.8681"/><path d="M9.17578 18.8641L9.17578 0.869175"/></symbol><symbol viewBox="0 0 31 31" id="signin" xmlns="http://www.w3.org/2000/svg"><path d="M30.5 15.6549C30.5 7.37001 23.7699 0.647461 15.4775 0.647461C7.18514 0.647461 0.455078 7.37001 0.455078 15.6549C0.455078 20.218 2.52818 24.3304 5.77303 27.0907C5.80307 27.1208 5.83312 27.1208 5.83312 27.1508C6.10352 27.3612 6.37393 27.5715 6.67438 27.7818C6.8246 27.8719 6.94478 27.9902 7.09501 28.1104C9.57759 29.7936 12.5082 30.6931 15.5076 30.6924C18.507 30.6931 21.4376 29.7936 23.9202 28.1104C24.0704 28.0203 24.1906 27.902 24.3408 27.8099C24.6112 27.6015 24.9116 27.3912 25.182 27.1809C25.2121 27.1508 25.2421 27.1508 25.2421 27.1208C28.4269 24.3285 30.5 20.218 30.5 15.6549ZM15.4775 28.8014C12.6533 28.8014 10.0695 27.9001 7.93626 26.3997C7.96631 26.1594 8.0264 25.9209 8.08649 25.6805C8.26551 25.0291 8.52808 24.4036 8.86766 23.8196C9.19815 23.2488 9.58873 22.738 10.0695 22.2873C10.5201 21.8366 11.0609 21.4179 11.6017 21.0874C12.1726 20.7569 12.7735 20.5165 13.4345 20.3363C14.1006 20.1567 14.7876 20.0664 15.4775 20.0677C17.5256 20.0532 19.4984 20.8389 20.9758 22.2573C21.6668 22.9483 22.2076 23.7595 22.5982 24.689C22.8085 25.2298 22.9587 25.8007 23.0489 26.3997C20.8315 27.9586 18.188 28.7971 15.4775 28.8014ZM10.8807 14.9057C10.6159 14.2995 10.4828 13.6441 10.4901 12.9828C10.4901 12.3237 10.6103 11.6627 10.8807 11.0618C11.1511 10.4609 11.5116 9.92195 11.9623 9.47128C12.413 9.02061 12.9538 8.66194 13.5547 8.39154C14.1556 8.12114 14.8166 8.00096 15.4775 8.00096C16.1686 8.00096 16.7995 8.12114 17.4004 8.39154C18.0013 8.66194 18.5421 9.02248 18.9928 9.47128C19.4435 9.92195 19.804 10.4628 20.0744 11.0618C20.3448 11.6627 20.465 12.3237 20.465 12.9828C20.465 13.6738 20.3448 14.3048 20.0744 14.9038C19.8134 15.4958 19.4469 16.0354 18.9928 16.4962C18.5318 16.9496 17.9923 17.3155 17.4004 17.5759C16.1589 18.0861 14.7662 18.0861 13.5246 17.5759C12.9328 17.3155 12.3932 16.9496 11.9322 16.4962C11.4775 16.0421 11.1197 15.5022 10.8807 14.9057ZM24.8215 24.8693C24.8215 24.8092 24.7915 24.7792 24.7915 24.7191C24.496 23.7791 24.0604 22.889 23.4995 22.0789C22.9381 21.2627 22.2482 20.543 21.4565 19.9476C20.8519 19.4927 20.1965 19.1096 19.5036 18.8059C19.8188 18.5979 20.1109 18.3568 20.3749 18.0867C20.8228 17.6444 21.2162 17.1502 21.5466 16.6145C22.212 15.5212 22.5557 14.2625 22.5381 12.9828C22.5474 12.0355 22.3634 11.0962 21.9973 10.2224C21.6358 9.38047 21.1156 8.61604 20.465 7.97091C19.8153 7.33251 19.0508 6.8228 18.2116 6.46866C17.3364 6.10323 16.3959 5.91986 15.4475 5.92973C14.499 5.92046 13.5585 6.10447 12.6834 6.47054C11.8369 6.82392 11.0705 7.34445 10.43 8.00096C9.79162 8.6499 9.28189 9.41385 8.92775 10.2524C8.56166 11.1262 8.37765 12.0655 8.38694 13.0128C8.38694 13.6738 8.47707 14.3048 8.65734 14.9038C8.83761 15.5347 9.07797 16.1056 9.40847 16.6445C9.70891 17.1853 10.1295 17.666 10.5802 18.1167C10.8506 18.3871 11.1511 18.6256 11.4816 18.8359C10.7865 19.1477 10.1309 19.5411 9.52864 20.0077C8.74748 20.6086 8.05644 21.3278 7.48559 22.1089C6.91898 22.9157 6.48299 23.8067 6.19366 24.7491C6.16361 24.8092 6.16361 24.8693 6.16361 24.8993C3.79006 22.4976 2.31786 19.2565 2.31786 15.6549C2.31786 8.42158 8.23671 2.50837 15.4775 2.50837C22.7184 2.50837 28.6372 8.42158 28.6372 15.6549C28.6333 19.11 27.2614 22.4229 24.8215 24.8693Z"/></symbol></svg>